<?xml version="1.0" standalone="no"?>
<!DOCTYPE svg PUBLIC "-//W3C//DTD SVG 1.1//EN" "http://www.w3.org/Graphics/SVG/1.1/DTD/svg11.dtd" >
<svg xmlns="http://www.w3.org/2000/svg">
<metadata>
Created by FontPrep 20130207 at Tue Feb 24 11:38:39 2015
 By Travis Sisti
2005 Albert-Jan Pool published by FSI Fonts und Software GmbH
</metadata>
<defs>
<font id="63854c30a2fce96edfc2a1a1f05e8cd7" horiz-adv-x='1024' >
  <font-face 
    font-family="DINOT-BoldItalic"
    font-weight="700"
    font-style="italic"
    font-stretch="normal"
    units-per-em="2048"
    panose-1="2 0 5 6 4 0 0 2 0 4"
    ascent="1565"
    descent="-483"
    x-height="1067"
    cap-height="1458"
    bbox="-330 -469 2267 2058"
    underline-thickness="104"
    underline-position="-174"
    unicode-range="U+000D-FB02"
  />
<missing-glyph horiz-adv-x="1114" 
d="M205 168h704v1122h-704v-1122zM37 0v1458h1040v-1458h-1040z" />
    <glyph glyph-name="fi" unicode="fi" horiz-adv-x="1179" 
d="M1227 1458l-41 -211h-260l41 211h260zM1141 1038l-207 -1038h-254l207 1038h254zM670 1260q-96 0 -117 -105l-25 -117h189l-39 -194h-189l-167 -844h-254l168 844h-105l39 194h104l31 144q61 293 348 293h150l-43 -215h-90z" />
    <glyph glyph-name="fl" unicode="fl" horiz-adv-x="1288" 
d="M989 276q0 -61 80 -61h105l-46 -215h-137q-113 0 -185 62t-73 169q0 49 8 88l228 1139h254l-228 -1136q-6 -27 -6 -46zM670 1260q-96 0 -117 -105l-25 -121h189l-39 -194h-189l-167 -840h-254l168 840h-105l39 194h104l31 148q57 293 348 293h150l-43 -215h-90z" />
    <glyph glyph-name=".notdef" horiz-adv-x="1114" 
d="M205 168h704v1122h-704v-1122zM37 0v1458h1040v-1458h-1040z" />
    <glyph glyph-name=".null" horiz-adv-x="0" 
 />
    <glyph glyph-name=".null" horiz-adv-x="0" 
 />
    <glyph glyph-name="nonmarkingreturn" horiz-adv-x="681" 
 />
    <glyph glyph-name="CR" unicode="&#xd;" horiz-adv-x="450" 
 />
    <glyph glyph-name="space" unicode=" " horiz-adv-x="450" 
 />
    <glyph glyph-name="exclam" unicode="!" horiz-adv-x="675" 
d="M461 272l-53 -272h-269l54 272h268zM713 1458l-258 -1003h-191l135 1003h314z" />
    <glyph glyph-name="quotedbl" unicode="&#x22;" horiz-adv-x="903" 
d="M557 1458l-86 -432h-238l86 432h238zM958 1458l-88 -432h-237l88 432h237z" />
    <glyph glyph-name="numbersign" unicode="#" horiz-adv-x="1363" 
d="M895 868h-233l-84 -237h233zM1382 1102l-47 -234h-168l-84 -237h144l-47 -234h-179l-139 -397h-270l139 397h-233l-140 -397h-270l139 397h-137l47 234h172l84 237h-145l47 234h178l129 368h270l-129 -368h234l129 368h270l-129 -368h135z" />
    <glyph glyph-name="dollar" unicode="$" horiz-adv-x="1216" 
d="M461 1014q0 -102 149 -137l68 356q-92 -13 -154 -75t-63 -144zM860 434q0 78 -39 112t-121 52l-67 -371q103 17 165 73t62 134zM1133 471q0 -277 -234 -404q-122 -66 -285 -79l-43 -221h-198l43 225q-142 8 -242 54t-182 144l196 175q109 -129 299 -136l76 394l-47 12
q-324 80 -323 344q0 199 134 336t367 155l35 181h199l-35 -187q227 -18 352 -174l-190 -166q-84 100 -236 107l-69 -379l53 -14q178 -43 254 -130t76 -237z" />
    <glyph glyph-name="percent" unicode="%" horiz-adv-x="1671" 
d="M1296 588q-96 0 -118 -119l-37 -190q-4 -33 -4 -43q0 -84 82 -84q96 0 118 118l37 193l6 41q0 84 -84 84zM537 1307q-96 0 -119 -119l-37 -191q-4 -33 -4 -43q0 -84 82 -84q96 0 119 119l36 193l7 41q0 84 -84 84zM1454 1458l-948 -1458h-205l948 1458h205zM1563 526
q0 -31 -7 -65l-34 -191q-53 -283 -328 -282q-100 0 -171 58t-71 169q0 31 6 66l37 190q53 281 326 281q100 0 171 -58t71 -168zM803 1245q0 -33 -6 -65l-35 -191q-53 -283 -328 -282q-100 0 -171 58t-70 169q0 33 6 65l34 191q53 281 328 280q100 0 171 -57t71 -168z" />
    <glyph glyph-name="ampersand" unicode="&#x26;" horiz-adv-x="1413" 
d="M838 1155q0 101 -110 101q-58 0 -94 -50q-36 -49 -36 -108t55 -142l66 41q119 74 119 158zM342 387q0 -76 48 -124t124 -48q123 0 238 100l-213 344q-197 -117 -197 -272zM483 -12q-165 0 -281 88t-116 268t87 286t257 210q-90 152 -90 268t84 229q43 59 129 97
q87 38 195 36q211 -1 279 -115q56 -91 56 -190q0 -172 -202 -303l-119 -76l178 -288q86 90 123 250h244q-57 -276 -238 -451l193 -297h-308l-80 125q-172 -137 -391 -137z" />
    <glyph glyph-name="quotesingle" unicode="'" horiz-adv-x="503" 
d="M559 1458l-86 -432h-240l86 432h240z" />
    <glyph glyph-name="parenleft" unicode="(" horiz-adv-x="653" 
d="M94 140q0 68 21 173l174 873q37 176 97 261t204 204l143 -189q-94 -82 -129 -127q-47 -66 -65 -161l-174 -869q-16 -90 -17 -123q0 -88 98 -205l-192 -170q-94 115 -127 190t-33 143z" />
    <glyph glyph-name="parenright" unicode=")" horiz-adv-x="653" 
d="M641 1320q0 -68 -20 -175l-175 -873q-37 -176 -97 -261t-204 -204l-143 189q94 82 129 127q47 66 66 162l174 868q16 90 16 123q0 88 -98 205l192 170q94 -115 127 -189t33 -142z" />
    <glyph glyph-name="asterisk" unicode="*" horiz-adv-x="962" 
d="M981 1102l-238 -72l191 -156l-117 -131l-176 170l-41 -243l-172 32l57 242l-229 -88l-57 164l237 72l-192 155l116 131l179 -168l39 242l172 -33l-56 -241l228 88z" />
    <glyph glyph-name="plus" unicode="+" 
d="M993 686l-47 -237h-313l-68 -336h-237l67 336h-311l47 237h311l68 336h238l-68 -336h313z" />
    <glyph glyph-name="comma" unicode="," horiz-adv-x="555" 
d="M377 291l-80 -404l-322 -225l127 629h275z" />
    <glyph glyph-name="hyphen" unicode="-" horiz-adv-x="829" 
d="M752 702l-47 -235h-601l48 235h600z" />
    <glyph glyph-name="period" unicode="." horiz-adv-x="555" 
d="M377 303l-60 -303h-288l61 303h287z" />
    <glyph glyph-name="slash" unicode="/" horiz-adv-x="788" 
d="M1016 1610l-905 -1762h-246l907 1762h244z" />
    <glyph glyph-name="zero" unicode="0" 
d="M807 1102q0 72 -39 106t-94 35q-170 0 -211 -203l-119 -612q-10 -55 -10 -72q0 -72 39 -106t94 -35q170 0 211 203l121 612q8 45 8 72zM1059 1120q0 -49 -10 -100l-117 -594q-45 -230 -180 -334q-134 -104 -302 -104t-268 97t-100 253q0 49 10 100l119 594
q45 230 180 334t302 104t267 -97t99 -253z" />
    <glyph glyph-name="one" unicode="1" 
d="M924 1458l-291 -1458h-254l233 1167l-331 -239l57 293l332 237h254z" />
    <glyph glyph-name="two" unicode="2" 
d="M1063 1108q0 -70 -22 -132q-22 -61 -41 -89q-19 -29 -29 -44t-34 -41t-31 -34t-33 -34l-496 -507h536l-47 -227h-860l47 227l631 641q68 70 95 117q28 47 28 114t-37 105t-102 39q-166 0 -211 -190h-256q37 207 164 312t314 105t285 -95t99 -267z" />
    <glyph glyph-name="three" unicode="3" 
d="M1047 1124q0 -266 -224 -379q68 -39 99 -99t30 -161q0 -209 -139 -353t-337 -144t-309 94q-112 94 -112 252q0 35 6 74h250q-4 -33 -4 -46q0 -66 42 -106t129 -41q87 0 154 78q66 78 66 167q-1 175 -163 175h-39l43 221h41q90 0 151 74t61 155t-36 119q-37 38 -105 39
q-68 0 -126 -47t-79 -131h-256q48 203 176 304t306 101t276 -98t99 -248z" />
    <glyph glyph-name="four" unicode="4" 
d="M997 1458l-671 -1005h288l56 270h241l-53 -270h133l-49 -240h-129l-43 -213h-242l41 213h-575l47 240l674 1005h282z" />
    <glyph glyph-name="five" unicode="5" 
d="M668 975q142 0 226 -96q83 -96 83 -236q0 -74 -14 -151q-49 -256 -173 -380t-312 -124t-288 95q-98 95 -98 245q0 43 4 73h244q-2 -14 -2 -41q0 -145 135 -145q98 0 152 73q53 74 72 180t20 142q0 150 -130 150t-198 -121h-229l164 819h786l-45 -227h-559l-64 -324
q84 68 226 68z" />
    <glyph glyph-name="six" unicode="6" 
d="M328 404q0 -189 170 -189q84 0 144 77q58 77 58 171q0 188 -174 188q-86 0 -142 -77t-56 -170zM629 856q145 0 235 -103t90 -274q0 -213 -131 -352t-337 -139t-309 116t-103 271q0 104 38 193t130 231l436 659h280l-415 -614q43 12 86 12z" />
    <glyph glyph-name="seven" unicode="7" 
d="M1169 1458l-45 -227l-684 -1231h-280l682 1231h-369l-45 -223h-242l88 450h895z" />
    <glyph glyph-name="eight" unicode="8" 
d="M457 1026q-1 -168 155 -168q80 0 138 68t59 147q1 170 -155 170q-80 0 -139 -68q-58 -69 -58 -149zM705 446q0 192 -173 191q-87 0 -152 -71t-65 -161t44 -140t131 -50q87 -1 151 69t64 162zM1065 1094q-1 -115 -63 -213t-160 -148q121 -95 121 -283q1 -188 -133 -325
t-367 -137q-176 0 -290 97t-114 284q-1 129 63 233t187 166q-106 94 -106 268t132 304q133 130 323 130t298 -102t109 -274z" />
    <glyph glyph-name="nine" unicode="9" 
d="M815 1054q0 189 -173 189q-85 0 -142 -77q-58 -77 -58 -171t44 -141t130 -47t143 77q56 77 56 170zM1069 1083q0 -104 -38 -193t-130 -231l-438 -659h-279l416 614q-43 -12 -86 -12q-145 0 -235 104t-91 273q0 213 131 352t337 139t310 -116q103 -117 103 -271z" />
    <glyph glyph-name="colon" unicode=":" horiz-adv-x="602" 
d="M535 858l-60 -303h-289l62 303h287zM428 303l-61 -303h-289l61 303h289z" />
    <glyph glyph-name="semicolon" unicode=";" horiz-adv-x="602" 
d="M537 858l-62 -303h-289l62 303h289zM420 291l-80 -404l-324 -225l127 629h277z" />
    <glyph glyph-name="less" unicode="&#x3c;" 
d="M1008 1090l-56 -283l-540 -223l454 -240l-51 -260l-725 408l45 217z" />
    <glyph glyph-name="equal" unicode="=" 
d="M956 487l-49 -235h-862l49 235h862zM1040 918l-47 -236h-864l49 236h862z" />
    <glyph glyph-name="greater" unicode="&#x3e;" 
d="M985 674l-45 -217l-872 -379l55 282l541 224l-455 239l53 260z" />
    <glyph glyph-name="question" unicode="?" horiz-adv-x="1017" 
d="M639 272l-53 -272h-269l54 272h268zM723 1470q139 0 239 -89t99 -251q0 -162 -152 -325l-182 -203q-45 -49 -57 -104l-11 -43h-253l14 63q27 123 112 215l181 193q92 100 92 192q0 53 -33 89t-88 36q-162 0 -195 -170h-256q35 201 166 299t324 98z" />
    <glyph glyph-name="at" unicode="@" horiz-adv-x="1478" 
d="M1130 607q0 60 -29 100q-30 39 -91 38q-90 0 -140 -64q-49 -65 -72 -175q-24 -110 -24 -170q0 -59 30 -98t106 -39t124 63t72 174t24 171zM1470 1108q0 -55 -18 -156l-190 -952h-232l19 94q-103 -106 -241 -106t-213 80t-75 194q0 66 31 218t61 234q31 83 99 146
q103 96 253 96t226 -104l20 109q10 51 10 111t-48 114q-49 55 -168 55h-242q-137 1 -214 -67t-106 -213l-120 -605q-10 -45 -10 -95t53 -111l-199 -173q-100 113 -100 242q0 68 12 129l121 615q49 255 174 379t397 124h301q211 0 315 -114q84 -92 84 -244z" />
    <glyph glyph-name="A" unicode="A" horiz-adv-x="1243" 
d="M805 487l-70 562l-293 -562h363zM1130 0h-274l-31 266h-493l-137 -266h-289l794 1458h215z" />
    <glyph glyph-name="B" unicode="B" horiz-adv-x="1282" 
d="M983 1075q0 143 -152 144h-258l-73 -359h260q111 0 167 66t56 149zM659 240q104 0 166 66t62 149q0 166 -154 166h-280l-76 -381h282zM1257 1120q0 -262 -237 -381q139 -88 139 -256q0 -217 -139 -350t-352 -133h-611l293 1458h529q188 0 283 -98t95 -240z" />
    <glyph glyph-name="C" unicode="C" horiz-adv-x="1212" 
d="M954 1020q-4 213 -198 213q-104 0 -185 -82q-82 -82 -147 -422q-43 -215 -43 -307t54 -144t147 -52t162 60t104 152h278q-72 -221 -222 -336q-150 -114 -352 -114q-200 0 -322 118t-121 295q0 96 47 336t88 359t131 209q166 165 393 165t342 -124t115 -326h-271z" />
    <glyph glyph-name="D" unicode="D" horiz-adv-x="1282" 
d="M985 1046q0 78 -54 126t-151 49h-207l-196 -983h205q131 0 213 79q45 45 75 130q31 85 73 303t42 296zM1257 1051q0 -78 -50 -334t-94 -371t-136 -203q-150 -143 -402 -143h-518l293 1458h477q193 0 311 -102t119 -305z" />
    <glyph glyph-name="E" unicode="E" horiz-adv-x="1183" 
d="M1260 1458l-48 -237h-639l-73 -367h551l-47 -238h-551l-76 -378h651l-47 -238h-924l293 1458h910z" />
    <glyph glyph-name="F" unicode="F" horiz-adv-x="1146" 
d="M1260 1458l-48 -237h-639l-75 -381h546l-47 -238h-548l-121 -602h-271l293 1458h910z" />
    <glyph glyph-name="G" unicode="G" horiz-adv-x="1261" 
d="M1235 1014h-270q-3 100 -53 160t-152 59q-102 0 -189 -86q-51 -51 -81 -137t-70 -283t-39 -302q0 -105 57 -153q56 -48 150 -47q94 0 179 77t112 216l12 64h-256l43 225h524l-39 -209q-31 -160 -76 -262t-126 -184q-165 -164 -389 -164t-344 121t-119 292q0 113 47 355
t89 351q42 110 128 196q168 167 400 167t347 -132t115 -324z" />
    <glyph glyph-name="H" unicode="H" horiz-adv-x="1333" 
d="M1360 1458l-293 -1458h-270l125 618h-469l-125 -618h-271l293 1458h271l-119 -602h469l119 602h270z" />
    <glyph glyph-name="I" unicode="I" horiz-adv-x="593" 
d="M621 1458l-293 -1458h-271l293 1458h271z" />
    <glyph glyph-name="J" unicode="J" horiz-adv-x="993" 
d="M305 -12q-244 0 -366 157l194 166q68 -86 166 -86q98 1 172 59t100 193l197 981h270l-200 -997q-77 -368 -386 -454q-73 -19 -147 -19z" />
    <glyph glyph-name="K" unicode="K" horiz-adv-x="1302" 
d="M1438 1458l-576 -608l334 -850h-295l-256 674l-231 -225l-88 -449h-269l293 1458h268l-129 -635l613 635h336z" />
    <glyph glyph-name="L" unicode="L" horiz-adv-x="1126" 
d="M1012 238l-47 -238h-908l293 1458h271l-244 -1220h635z" />
    <glyph glyph-name="M" unicode="M" horiz-adv-x="1576" 
d="M1604 1458l-293 -1458h-271l174 862l-366 -538h-182l-164 542l-174 -866h-271l293 1458h254l207 -778l528 778h265z" />
    <glyph glyph-name="N" unicode="N" horiz-adv-x="1386" 
d="M1413 1458l-293 -1458h-229l-379 911l-184 -911h-271l293 1458h230l381 -913l182 913h270z" />
    <glyph glyph-name="O" unicode="O" horiz-adv-x="1251" 
d="M948 1033q0 95 -53 147t-131 53q-117 0 -199 -88q-43 -45 -73 -131t-70 -295q-41 -209 -41 -299t54 -142t132 -53q117 0 199 88q43 45 73 131q29 86 69 290t40 299zM1223 1057q0 -88 -46 -329q-45 -240 -89 -362t-129 -207t-195 -128t-217 -43q-201 0 -320 118t-118 295
q0 88 46 329t89 363t128 207q86 86 194 128t216 42q201 0 321 -118t120 -295z" />
    <glyph glyph-name="P" unicode="P" horiz-adv-x="1222" 
d="M987 1051q0 168 -164 168h-250l-84 -414h242q123 0 190 76q66 76 66 170zM721 565h-281l-112 -565h-271l293 1458h518q182 0 287 -106t105 -296q0 -192 -144 -342t-395 -149z" />
    <glyph glyph-name="Q" unicode="Q" horiz-adv-x="1251" 
d="M948 1033q0 95 -53 147t-131 53q-117 0 -199 -88q-43 -45 -73 -131t-70 -295q-41 -209 -41 -299t54 -142q55 -52 123 -52t116 28l-107 137l164 144l90 -117q43 86 85 303t42 312zM1223 1057q0 -89 -43 -317t-81 -344t-108 -201l101 -134l-162 -143l-107 141
q-127 -72 -276 -71q-201 0 -320 118t-118 295q0 88 46 329t89 363t128 207q86 86 194 128t216 42q201 0 321 -118t120 -295z" />
    <glyph glyph-name="R" unicode="R" horiz-adv-x="1280" 
d="M989 1049q0 84 -44 127t-126 43h-246l-81 -404h245q125 0 189 75q63 75 63 159zM862 1458q206 0 302 -110t96 -268q0 -156 -88 -280t-252 -179l200 -621h-297l-170 590h-204l-121 -590h-271l293 1458h512z" />
    <glyph glyph-name="S" unicode="S" horiz-adv-x="1153" 
d="M463 1025q0 -74 41 -105t114 -50l121 -28q178 -43 254 -132t76 -247q0 -233 -168 -354t-416 -121q-171 0 -285 46t-206 154l196 172q113 -133 320 -133q121 -1 205 61t84 143t-38 116t-116 53l-121 31q-170 43 -251 134t-80 212q0 215 154 354q155 139 423 139t412 -176
l-191 -166q-90 106 -258 107q-121 0 -195 -68t-75 -142z" />
    <glyph glyph-name="T" unicode="T" horiz-adv-x="1114" 
d="M1239 1458l-47 -239h-358l-244 -1219h-271l244 1219h-366l47 239h995z" />
    <glyph glyph-name="U" unicode="U" horiz-adv-x="1300" 
d="M584 -12q-202 0 -330 114q-127 114 -127 301q0 53 14 125l187 930h270l-190 -946q-10 -61 -11 -90q0 -82 48 -138t155 -56q106 0 184 76q78 77 107 222l186 932h271l-193 -958q-51 -256 -210 -384t-361 -128z" />
    <glyph glyph-name="V" unicode="V" horiz-adv-x="1130" 
d="M1315 1458l-744 -1458h-213l-165 1458h266l98 -966l467 966h291z" />
    <glyph glyph-name="W" unicode="W" horiz-adv-x="1732" 
d="M1903 1458l-652 -1458h-227l-76 897l-442 -897h-225l-86 1458h278l33 -932l442 932h203l72 -932l393 932h287z" />
    <glyph glyph-name="X" unicode="X" horiz-adv-x="1185" 
d="M1325 1458l-541 -721l293 -737h-303l-180 518l-369 -518h-315l573 758l-270 700h301l162 -479l334 479h315z" />
    <glyph glyph-name="Y" unicode="Y" horiz-adv-x="1126" 
d="M1300 1458l-585 -870l-119 -588h-270l120 598l-264 860h287l156 -604l376 604h299z" />
    <glyph glyph-name="Z" unicode="Z" horiz-adv-x="1077" 
d="M1178 1458l-43 -211l-783 -1007h594l-49 -240h-922l45 215l777 1004h-564l48 239h897z" />
    <glyph glyph-name="bracketleft" unicode="[" horiz-adv-x="735" 
d="M862 1610l-45 -228h-237l-263 -1306h258l-45 -228h-510l351 1762h491z" />
    <glyph glyph-name="backslash" unicode="\" horiz-adv-x="774" 
d="M641 -152h-229l-201 1735h231z" />
    <glyph glyph-name="bracketright" unicode="]" horiz-adv-x="735" 
d="M797 1610l-351 -1762h-491l45 226h240l262 1310h-258l45 226h508z" />
    <glyph glyph-name="asciicircum" unicode="^" horiz-adv-x="1189" 
d="M1122 797h-254l-127 405l-288 -405h-277l483 676h250z" />
    <glyph glyph-name="underscore" unicode="_" 
d="M918 -186l-35 -168h-1059l35 168h1059z" />
    <glyph glyph-name="grave" unicode="`" horiz-adv-x="1052" 
d="M758 1231h-164l-152 342h263z" />
    <glyph glyph-name="a" unicode="a" horiz-adv-x="1042" 
d="M455 459q-84 0 -133 -46t-50 -118q0 -100 136 -100q100 0 156 56t73 144l12 64h-194zM961 782q0 -47 -11 -94l-139 -688h-244l19 94q-104 -104 -250 -104t-230 79t-83 201q1 156 105 260t302 103h254l14 63q6 27 7 56q-1 114 -149 114t-239 -100l-131 170
q139 143 396 143q156 -1 268 -71t111 -226z" />
    <glyph glyph-name="b" unicode="b" horiz-adv-x="1091" 
d="M764 705q0 147 -129 147q-105 0 -155 -77t-78 -219t-27 -194q0 -147 129 -147q104 0 154 78q50 79 78 221t28 191zM1026 770q0 -76 -31 -242t-67 -268q-97 -273 -377 -272q-174 0 -248 121l-20 -109h-246l291 1458h254l-97 -483q89 104 233 104q144 1 226 -77t82 -232z
" />
    <glyph glyph-name="c" unicode="c" horiz-adv-x="937" 
d="M608 852q-84 0 -158 -77t-104 -240q-14 -82 -14 -153t39 -119t123 -48t176 90l141 -182q-145 -135 -352 -135q-162 0 -273 100t-110 281q0 78 22 200q22 121 81 233q58 112 134 169q147 110 333 109q187 -1 302 -148l-190 -168q-66 88 -150 88z" />
    <glyph glyph-name="d" unicode="d" horiz-adv-x="1091" 
d="M721 707q0 145 -127 145q-106 0 -156 -77t-77 -219q-28 -142 -27 -194q0 -147 127 -147q104 0 154 78q50 79 78 221t28 193zM544 1079q168 0 240 -114l99 493h254l-291 -1458h-246l23 102q-99 -114 -259 -114t-228 89t-66 210q0 80 32 248q66 336 170 440t272 104z" />
    <glyph glyph-name="e" unicode="e" horiz-adv-x="1073" 
d="M756 698q0 82 -41 127t-111 45q-178 0 -246 -243h392q6 32 6 71zM997 698q0 -92 -32 -241h-639q-8 -57 -9 -76q1 -82 47 -130t136 -48q139 0 254 108l133 -168q-164 -156 -416 -155q-163 0 -279 91t-116 280t57 349t184 265q127 106 300 106t277 -103q103 -104 103 -278z
" />
    <glyph glyph-name="f" unicode="f" horiz-adv-x="665" 
d="M670 1260q-96 0 -117 -105l-25 -121h189l-39 -194h-189l-167 -840h-254l168 840h-105l39 194h104l31 148q57 293 348 293h150l-43 -215h-90z" />
    <glyph glyph-name="g" unicode="g" horiz-adv-x="1079" 
d="M713 711q0 141 -127 141q-94 0 -146 -70t-74 -194q-24 -124 -24 -174q0 -141 127 -142q94 0 145 70t75 195t24 174zM329 -188q103 0 171 62t90 169l22 109q-90 -106 -226 -106t-221 78q-85 79 -85 222q0 72 28 224t63 248q99 261 368 261q168 0 241 -121l21 109h246
l-205 -1026q-46 -223 -182 -334t-330 -110q-227 0 -355 145l177 154q74 -84 177 -84z" />
    <glyph glyph-name="h" unicode="h" horiz-adv-x="1114" 
d="M1028 784q0 -37 -14 -118l-133 -666h-254l129 649q8 45 8 70q0 65 -37 99t-97 34t-124 -46q-63 -46 -86 -159l-129 -647h-254l291 1458h254l-95 -475q106 96 263 96q110 0 194 -74t84 -221z" />
    <glyph glyph-name="i" unicode="i" horiz-adv-x="536" 
d="M584 1454l-43 -211h-260l41 211h262zM504 1067l-213 -1067h-254l213 1067h254z" />
    <glyph glyph-name="j" unicode="j" horiz-adv-x="536" 
d="M584 1454l-43 -211h-260l41 211h262zM-72 -399h-157l43 215h92q94 0 114 108l230 1143h254l-232 -1165q-28 -141 -116 -221t-228 -80z" />
    <glyph glyph-name="k" unicode="k" horiz-adv-x="1093" 
d="M1141 1067l-447 -444l283 -623h-291l-184 465l-146 -135l-65 -330h-254l291 1458h254l-164 -825l422 434h301z" />
    <glyph glyph-name="l" unicode="l" horiz-adv-x="636" 
d="M340 276q0 -61 78 -61h104l-43 -215h-139q-112 0 -184 62t-72 169q0 49 8 88l227 1139h254l-227 -1136q-6 -27 -6 -46z" />
    <glyph glyph-name="m" unicode="m" horiz-adv-x="1703" 
d="M1616 784q0 -53 -12 -118l-134 -666h-253l129 649q8 45 8 70q0 65 -37 99t-99 34t-123 -46q-62 -46 -85 -159l-129 -647h-254l129 649q8 45 8 70q0 65 -37 99t-97 34t-124 -46q-63 -46 -86 -159l-129 -647h-254l213 1067h244l-21 -102q111 115 273 115t239 -138
q129 137 334 137q119 0 208 -77t89 -218z" />
    <glyph glyph-name="n" unicode="n" horiz-adv-x="1114" 
d="M1028 784q0 -37 -14 -118l-133 -666h-254l129 649q8 45 8 70q0 65 -37 99t-97 34t-124 -46q-63 -46 -86 -159l-129 -647h-254l213 1067h244l-21 -102q111 115 281 114q110 0 192 -74t82 -221z" />
    <glyph glyph-name="o" unicode="o" horiz-adv-x="1052" 
d="M725 712q0 62 -36 101q-37 39 -107 39t-123 -53q-70 -66 -109 -264q-22 -117 -22 -179t37 -102q37 -39 107 -39t122 53q68 66 108 267q23 115 23 177zM977 727q0 -70 -26 -212q-96 -527 -513 -527q-141 0 -252 88t-110 266q0 57 22 193q31 162 75 257t116 164
q127 123 327 123q141 0 251 -87t110 -265z" />
    <glyph glyph-name="p" unicode="p" horiz-adv-x="1091" 
d="M762 707q0 145 -127 145q-105 0 -155 -77t-78 -219t-27 -194q0 -147 127 -147q104 0 154 78q50 79 78 221t28 193zM1026 800q0 -104 -33 -265q-66 -339 -170 -443t-271 -104t-241 114l-98 -493h-254l291 1458h246l-23 -102q100 115 259 115q158 0 226 -89q68 -87 68 -191
z" />
    <glyph glyph-name="q" unicode="q" horiz-adv-x="1091" 
d="M719 705q0 147 -127 147q-106 0 -156 -77t-77 -219q-28 -142 -27 -194q0 -147 127 -147q104 0 154 78q50 79 78 221t28 191zM374 -12q-142 0 -224 78q-80 78 -80 233q0 76 30 242t68 268q98 270 377 270q172 0 246 -121l22 109h246l-291 -1458h-254l94 485
q-92 -106 -234 -106z" />
    <glyph glyph-name="r" unicode="r" horiz-adv-x="880" 
d="M629 850q-70 0 -130 -56t-79 -149l-129 -645h-254l213 1067h246l-23 -104q96 117 270 116q142 0 228 -100l-219 -195q-53 66 -123 66z" />
    <glyph glyph-name="s" unicode="s" horiz-adv-x="972" 
d="M377 741q0 -66 98 -79l137 -23q258 -41 258 -277q0 -147 -116 -261q-116 -113 -375 -113q-258 0 -406 159l183 160q88 -102 245 -102q102 0 160 40q57 40 57 93q0 72 -100 88l-139 23q-135 23 -196 89q-60 67 -60 152q-1 158 115 274t344 115q228 0 358 -131l-174 -153
q-74 76 -203 75q-90 0 -138 -38t-48 -91z" />
    <glyph glyph-name="t" unicode="t" horiz-adv-x="690" 
d="M375 279q0 -66 82 -66h92l-43 -213h-131q-113 0 -186 62t-72 169q0 43 8 88l104 523h-108l39 196h108l64 316h254l-64 -316h176l-39 -196h-176l-104 -525q-4 -16 -4 -38z" />
    <glyph glyph-name="u" unicode="u" horiz-adv-x="1114" 
d="M90 285q0 47 12 116l134 666h253l-129 -649q-8 -45 -8 -70q0 -66 37 -100t99 -33q62 0 123 46q62 46 85 159l129 647h254l-211 -1067h-243l18 102q-111 -115 -281 -114q-106 0 -189 74t-83 223z" />
    <glyph glyph-name="v" unicode="v" horiz-adv-x="960" 
d="M1061 1067l-584 -1067h-201l-159 1067h252l75 -688l344 688h273z" />
    <glyph glyph-name="w" unicode="w" horiz-adv-x="1472" 
d="M1567 1067l-510 -1067h-201l-84 678l-350 -678h-205l-100 1067h254l37 -666l337 666h185l78 -666l290 666h269z" />
    <glyph glyph-name="x" unicode="x" horiz-adv-x="1028" 
d="M1087 1067l-430 -530l252 -537h-293l-133 334l-247 -334h-314l453 551l-242 516h293l125 -317l227 317h309z" />
    <glyph glyph-name="y" unicode="y" horiz-adv-x="950" 
d="M47 -391h-98l47 229h57q53 0 84 26t62 85l67 127l-151 991h252l77 -688l342 688h269l-666 -1239q-41 -78 -88 -125q-94 -94 -254 -94z" />
    <glyph glyph-name="z" unicode="z" horiz-adv-x="944" 
d="M963 1067l-39 -195l-572 -645h457l-45 -227h-791l39 195l568 645h-426l45 227h764z" />
    <glyph glyph-name="braceleft" unicode="{" horiz-adv-x="890" 
d="M874 1382q-90 0 -122 -30t-50 -125l-59 -293q-33 -166 -176 -201q98 -47 98 -160q0 -29 -6 -59l-55 -278q-10 -55 -10 -91t26 -53q27 -16 90 -16h117l-45 -228h-197q-131 0 -193 73t-63 171q0 35 9 76l61 301q27 160 -109 162h-86l48 225h88q66 0 108 36t60 126l57 289
q33 163 116 233t232 70h201l-45 -228h-95z" />
    <glyph glyph-name="bar" unicode="|" horiz-adv-x="681" 
d="M684 1610l-352 -1762h-252l350 1762h254z" />
    <glyph glyph-name="braceright" unicode="}" horiz-adv-x="890" 
d="M733 602q-65 0 -107 -36t-61 -126l-57 -288q-33 -162 -116 -233t-232 -71h-201l45 228h94q90 0 122 30t50 125l60 293q33 166 176 201q-98 47 -98 160q0 29 6 59l55 279q10 55 10 91t-26 52q-27 16 -91 16h-116l45 228h196q131 0 193 -73t63 -171q0 -35 -8 -76l-61 -301
q-27 -160 108 -162h86l-47 -225h-88z" />
    <glyph glyph-name="asciitilde" unicode="~" horiz-adv-x="1179" 
d="M391 524q-84 0 -180 -88l-133 172q172 158 348 158q106 0 204 -58t169 -57q102 0 194 86l131 -170q-172 -158 -346 -157q-106 0 -204 57t-183 57z" />
    <glyph glyph-name="uni00A0" unicode="&#xa0;" horiz-adv-x="450" 
 />
    <glyph glyph-name="exclamdown" unicode="&#xa1;" horiz-adv-x="675" 
d="M541 1067l-54 -272h-268l53 272h269zM416 612l-135 -1003h-314l258 1003h191z" />
    <glyph glyph-name="cent" unicode="&#xa2;" horiz-adv-x="991" 
d="M588 1051q-103 -24 -170 -312q-31 -133 -23 -203t76 -87zM123 612q0 248 127 447t356 225l35 174h197l-35 -176q143 -31 235 -162l-186 -153q-51 72 -121 86l-121 -613q80 8 158 86l139 -170q-73 -68 -143 -102t-172 -47l-41 -207h-197l43 215q-115 29 -195 135t-79 262z
" />
    <glyph glyph-name="sterling" unicode="&#xa3;" horiz-adv-x="1128" 
d="M821 1231q-213 0 -264 -248l-35 -176h223l-38 -193h-222l-75 -374h581l-47 -240h-852l123 614h-119l37 193h119l39 186q101 478 543 478q236 0 354 -154l-201 -172q-55 86 -166 86z" />
    <glyph glyph-name="currency" unicode="&#xa4;" horiz-adv-x="1370" 
d="M934 586q0 102 -73 175t-175 73t-176 -73t-74 -175t74 -176t176 -74t175 74t73 176zM211 587q0 132 68 240l-148 148l164 164l147 -148q113 68 245 68t241 -68l147 148l164 -164l-147 -148q68 -109 68 -241t-68 -244l147 -147l-164 -164l-147 147q-109 -68 -241 -68
t-245 68l-147 -147l-164 164l148 147q-68 113 -68 245z" />
    <glyph glyph-name="yen" unicode="&#xa5;" horiz-adv-x="1126" 
d="M1300 1458l-380 -565h151l-39 -193h-241l-76 -112l-21 -94h297l-39 -193h-295l-61 -301h-270l61 301h-293l39 193h291l22 104l-30 102h-242l37 193h143l-172 565h287l156 -604l376 604h299z" />
    <glyph glyph-name="brokenbar" unicode="&#xa6;" horiz-adv-x="688" 
d="M475 565l-143 -717h-252l141 717h254zM684 1610l-143 -717h-254l143 717h254z" />
    <glyph glyph-name="section" unicode="&#xa7;" horiz-adv-x="1032" 
d="M672 608q0 70 -37 102t-94 32t-111 -48q-54 -47 -74 -143q-6 -31 -6 -55q0 -70 38 -102t96 -32t110 46q53 46 72 143q6 30 6 57zM991 1178q0 -25 -4 -50h-227q10 125 -117 125q-74 0 -115 -43t-41 -106q0 -80 105 -121l108 -43q88 -35 148 -115t59 -188q0 -276 -237 -404
q110 -81 110 -241t-110 -278t-330 -117q-141 0 -235 79q-93 80 -93 213q0 39 2 60h236q-6 -57 26 -93t98 -36t114 41t48 128t-108 132l-106 43q-92 37 -150 115q-57 77 -57 197t62 229t179 165q-104 86 -104 234t108 257q109 110 308 109q154 0 238 -82t85 -210z" />
    <glyph glyph-name="dieresis" unicode="&#xa8;" horiz-adv-x="1052" 
d="M610 1485l-49 -250h-217l49 250h217zM1038 1485l-49 -250h-217l49 250h217z" />
    <glyph glyph-name="copyright" unicode="&#xa9;" horiz-adv-x="1640" 
d="M870 1110q144 0 260 -100l-108 -109q-72 61 -154 61t-130 -62t-48 -171t48 -171t130 -62t154 61l108 -108q-113 -101 -259 -101t-245 100t-100 281q0 181 100 281t244 100zM1397 729q0 233 -155 390t-382 157t-381 -157q-153 -157 -153 -390t154 -390t380 -157
q227 0 382 157t155 390zM1565 729q0 -291 -207 -498t-498 -207t-498 208q-207 206 -206 497q0 291 206 498q207 207 498 207t498 -207t207 -498z" />
    <glyph glyph-name="ordfeminine" unicode="&#xaa;" horiz-adv-x="882" 
d="M494 973q-68 0 -107 -37t-39 -90q0 -82 111 -82q149 0 180 158l10 51h-155zM899 1231q0 -31 -8 -76l-111 -549h-196l14 74q-76 -82 -196 -82t-186 65t-66 176t84 192t241 81h203l8 49q6 31 6 45q0 90 -118 90t-189 -77l-106 137q117 113 317 112q125 0 214 -56t89 -181z
" />
    <glyph glyph-name="guillemotleft" unicode="&#xab;" horiz-adv-x="1222" 
d="M662 1067l-68 -328l-227 -196l149 -197l-55 -291l-387 510zM1204 1067l-67 -328l-228 -196l150 -197l-55 -291l-388 510z" />
    <glyph glyph-name="logicalnot" unicode="&#xac;" 
d="M1010 735l-109 -540h-235l61 305h-641l47 235h877z" />
    <glyph glyph-name="uni00AD" unicode="&#xad;" horiz-adv-x="829" 
d="M752 702l-47 -235h-601l48 235h600z" />
    <glyph glyph-name="registered" unicode="&#xae;" horiz-adv-x="1640" 
d="M991 868q0 41 -29 70q-30 29 -75 29h-115v-193h115q45 0 75 26t29 68zM772 643v-289h-168v750h305q111 0 180 -69t69 -155q-1 -160 -136 -210l156 -316h-191l-135 289h-80zM1397 729q0 233 -155 390t-382 157t-382 -157q-154 -157 -154 -390t154 -390t382 -157
q227 0 382 157t155 390zM1565 729q0 -291 -207 -498t-498 -207t-498 208q-207 206 -206 497q0 291 206 498q207 207 498 207t498 -207t207 -498z" />
    <glyph glyph-name="macron" unicode="&#xaf;" horiz-adv-x="1040" 
d="M1016 1436l-33 -168h-618l34 168h617z" />
    <glyph glyph-name="degree" unicode="&#xb0;" horiz-adv-x="942" 
d="M750 1110q0 70 -48 117t-114 47q-68 0 -115 -47t-47 -117t47 -117t115 -47t115 47t47 117zM952 1111q0 -157 -103 -261t-261 -104t-261 104t-103 261t104 261t260 104t260 -104t104 -261z" />
    <glyph glyph-name="plusminus" unicode="&#xb1;" 
d="M905 236l-47 -236h-862l47 236h862zM1040 924l-47 -234h-313l-68 -338h-237l67 338h-311l47 234h311l68 336h238l-68 -336h313z" />
    <glyph glyph-name="twosuperior" unicode="&#xb2;" horiz-adv-x="696" 
d="M518 1466q112 0 174 -60t62 -151q0 -90 -38 -149t-114 -131l-240 -227h308l-33 -164h-537l33 164l363 346q74 72 73 133q0 76 -69 76q-84 0 -101 -95h-184q49 258 303 258z" />
    <glyph glyph-name="threesuperior" unicode="&#xb3;" horiz-adv-x="714" 
d="M766 1239q0 -147 -129 -213q68 -51 68 -170t-84 -200q-83 -81 -217 -81q-134 1 -196 59t-63 142q0 47 5 66h182q-12 -102 78 -103q44 0 76 34t32 89q0 90 -80 90h-24l32 156h19q59 0 87 37t28 78t-20 60t-48 20q-84 0 -102 -93h-185q49 256 307 256q104 0 169 -62
t65 -165z" />
    <glyph glyph-name="acute" unicode="&#xb4;" horiz-adv-x="1040" 
d="M1016 1573l-287 -342h-172l191 342h268z" />
    <glyph glyph-name="uni00B5" unicode="&#xb5;" horiz-adv-x="1122" 
d="M494 215q60 0 124 46q63 46 87 159l129 647h253l-213 -1067h-243l20 102q-111 -115 -280 -114q-51 0 -82 30l-82 -409h-254l291 1458h254l-131 -649q-22 -122 30 -170q37 -34 97 -33z" />
    <glyph glyph-name="paragraph" unicode="&#xb6;" horiz-adv-x="1302" 
d="M170 1039q0 167 130 293t388 126h639l-371 -1849h-251l321 1612h-195l-323 -1612h-252l211 1061q-111 8 -204 105t-93 264z" />
    <glyph glyph-name="periodcentered" unicode="&#xb7;" horiz-adv-x="555" 
d="M463 729l-57 -289h-289l57 289h289z" />
    <glyph glyph-name="cedilla" unicode="&#xb8;" horiz-adv-x="1052" 
d="M526 -117l-141 -295h-240l191 295h190z" />
    <glyph glyph-name="onesuperior" unicode="&#xb9;" horiz-adv-x="569" 
d="M621 1458l-175 -874h-184l131 657l-207 -149l45 219l207 147h183z" />
    <glyph glyph-name="ordmasculine" unicode="&#xba;" horiz-adv-x="899" 
d="M700 1163q0 121 -106 121q-68 0 -107 -43q-53 -53 -84 -209q-16 -82 -16 -131q0 -121 105 -121q68 0 108 45q52 51 76 175t24 163zM903 1188q0 -78 -16 -156q-43 -232 -151 -334t-263 -102q-113 0 -201 72t-88 213q0 74 17 151q45 236 150 336t263 100q113 0 201 -70
t88 -210z" />
    <glyph glyph-name="guillemotright" unicode="&#xbb;" horiz-adv-x="1222" 
d="M625 559l-588 -504l65 328l230 197l-152 198l58 289zM1167 559l-587 -504l65 328l227 197l-149 198l57 289z" />
    <glyph glyph-name="onequarter" unicode="&#xbc;" horiz-adv-x="1638" 
d="M621 1458l-175 -874h-184l131 657l-211 -154l43 220l213 151h183zM1524 874l-394 -579h144l26 129h177l-27 -129h68l-33 -172h-70l-22 -123h-176l26 123h-348l33 172l393 579h203zM1407 1458l-946 -1458h-203l946 1458h203z" />
    <glyph glyph-name="onehalf" unicode="&#xbd;" horiz-adv-x="1691" 
d="M621 1458l-175 -874h-184l131 657l-211 -154l43 220l213 151h183zM1634 671q0 -90 -38 -149t-113 -131l-242 -227h309l-32 -164h-539l35 164l362 346q74 72 74 133q0 76 -70 76q-86 0 -102 -94h-182q49 258 303 258q113 0 174 -61t61 -151zM1399 1458l-946 -1458h-203
l946 1458h203z" />
    <glyph glyph-name="threequarters" unicode="&#xbe;" horiz-adv-x="1714" 
d="M1597 874l-393 -579h146l24 129h176l-26 -129h67l-32 -172h-68l-25 -123h-174l25 123h-348l32 172l394 579h202zM766 1239q0 -147 -129 -213q68 -51 68 -170t-84 -200q-83 -81 -217 -81q-134 1 -196 59t-63 142q0 47 5 66h182q-12 -102 78 -103q44 0 76 34t32 89
q0 90 -80 90h-24l32 156h19q59 0 87 37t28 78t-20 60t-48 20q-84 0 -102 -93h-185q49 256 307 256q104 0 169 -62t65 -165zM1487 1458l-946 -1458h-203l944 1458h205z" />
    <glyph glyph-name="questiondown" unicode="&#xbf;" horiz-adv-x="1017" 
d="M707 1067l-52 -272h-268l53 272h267zM303 -403q-139 0 -238 89q-99 90 -99 252t151 326l182 201q45 49 57 104l9 45h253l-14 -65q-27 -125 -110 -215l-183 -193q-90 -98 -90 -192q0 -53 33 -89t88 -36q162 0 195 170h254q-35 -201 -165 -299t-323 -98z" />
    <glyph glyph-name="Agrave" unicode="&#xc0;" horiz-adv-x="1243" 
d="M911 1593h-161l-152 344h260zM805 487l-70 562l-293 -562h363zM1130 0h-274l-31 266h-493l-137 -266h-289l794 1458h215z" />
    <glyph glyph-name="Aacute" unicode="&#xc1;" horiz-adv-x="1243" 
d="M1169 1937l-286 -344h-172l190 344h268zM805 487l-70 562l-293 -562h363zM1130 0h-274l-31 266h-493l-137 -266h-289l794 1458h215z" />
    <glyph glyph-name="Acircumflex" unicode="&#xc2;" horiz-adv-x="1243" 
d="M1178 1593h-189l-121 193l-202 -193h-207l325 349h205zM805 487l-70 562l-293 -562h363zM1130 0h-274l-31 266h-493l-137 -266h-289l794 1458h215z" />
    <glyph glyph-name="Atilde" unicode="&#xc3;" horiz-adv-x="1243" 
d="M975 1618q-83 0 -149 40t-121 40t-123 -64l-93 123q117 107 213 107t163 -40t123 -40t122 61l92 -121q-113 -106 -227 -106zM805 487l-70 562l-293 -562h363zM1130 0h-274l-31 266h-493l-137 -266h-289l794 1458h215z" />
    <glyph glyph-name="Adieresis" unicode="&#xc4;" horiz-adv-x="1243" 
d="M764 1847l-49 -250h-217l49 250h217zM1192 1847l-49 -250h-217l49 250h217zM805 487l-70 562l-293 -562h363zM1130 0h-274l-31 266h-493l-137 -266h-289l794 1458h215z" />
    <glyph glyph-name="Aring" unicode="&#xc5;" horiz-adv-x="1243" 
d="M942 1798q0 49 -36 84t-83 35t-83 -35t-36 -84t36 -84t83 -35t83 35t36 84zM1081 1798q1 -112 -75 -186t-184 -74t-184 75t-75 185q0 110 76 186q76 74 183 74t183 -74t76 -186zM805 487l-70 562l-293 -562h363zM1130 0h-274l-31 266h-493l-137 -266h-289l794 1458h215z
" />
    <glyph glyph-name="AE" unicode="&#xc6;" horiz-adv-x="1925" 
d="M1042 1221l-456 -662h325zM2001 1458l-47 -235h-641l-72 -371h549l-47 -236h-551l-76 -380h649l-47 -236h-919l65 334h-434l-229 -334h-299l1016 1458h1083z" />
    <glyph glyph-name="Ccedilla" unicode="&#xc7;" horiz-adv-x="1212" 
d="M647 -117l-141 -295h-240l191 295h190zM954 1020q-4 213 -198 213q-104 0 -185 -82q-82 -82 -147 -422q-43 -215 -43 -307t54 -144t147 -52t162 60t104 152h278q-72 -221 -222 -336q-150 -114 -352 -114q-200 0 -322 118t-121 295q0 96 47 336t88 359t131 209
q166 165 393 165t342 -124t115 -326h-271z" />
    <glyph glyph-name="Egrave" unicode="&#xc8;" horiz-adv-x="1183" 
d="M889 1593h-162l-152 344h261zM1260 1458l-48 -237h-639l-73 -367h551l-47 -238h-551l-76 -378h651l-47 -238h-924l293 1458h910z" />
    <glyph glyph-name="Eacute" unicode="&#xc9;" horiz-adv-x="1183" 
d="M1147 1937l-287 -344h-172l191 344h268zM1260 1458l-48 -237h-639l-73 -367h551l-47 -238h-551l-76 -378h651l-47 -238h-924l293 1458h910z" />
    <glyph glyph-name="Ecircumflex" unicode="&#xca;" horiz-adv-x="1183" 
d="M1155 1593h-188l-121 193l-203 -193h-207l326 349h205zM1260 1458l-48 -237h-639l-73 -367h551l-47 -238h-551l-76 -378h651l-47 -238h-924l293 1458h910z" />
    <glyph glyph-name="Edieresis" unicode="&#xcb;" horiz-adv-x="1183" 
d="M741 1847l-49 -250h-217l49 250h217zM1169 1847l-49 -250h-217l49 250h217zM1260 1458l-48 -237h-639l-73 -367h551l-47 -238h-551l-76 -378h651l-47 -238h-924l293 1458h910z" />
    <glyph glyph-name="Igrave" unicode="&#xcc;" horiz-adv-x="593" 
d="M592 1593h-162l-151 344h260zM621 1458l-293 -1458h-271l293 1458h271z" />
    <glyph glyph-name="Iacute" unicode="&#xcd;" horiz-adv-x="593" 
d="M850 1937l-287 -344h-172l191 344h268zM621 1458l-293 -1458h-271l293 1458h271z" />
    <glyph glyph-name="Icircumflex" unicode="&#xce;" horiz-adv-x="593" 
d="M858 1593h-188l-121 193l-203 -193h-207l326 349h205zM621 1458l-293 -1458h-271l293 1458h271z" />
    <glyph glyph-name="Idieresis" unicode="&#xcf;" horiz-adv-x="593" 
d="M444 1847l-49 -250h-217l49 250h217zM872 1847l-49 -250h-217l49 250h217zM621 1458l-293 -1458h-271l293 1458h271z" />
    <glyph glyph-name="Eth" unicode="&#xd0;" horiz-adv-x="1327" 
d="M1030 1046q0 78 -54 126t-151 49h-207l-77 -381h225l-41 -205h-225l-80 -397h205q135 0 217 79q45 43 74 128q30 85 72 303q42 220 42 298zM1303 1051q-1 -78 -51 -334t-94 -371t-136 -203q-150 -143 -401 -143h-519l127 635h-135l41 205h135l125 618h477q193 0 312 -102
t119 -305z" />
    <glyph glyph-name="Ntilde" unicode="&#xd1;" horiz-adv-x="1386" 
d="M1014 1618q-82 0 -148 40t-122 40q-55 0 -123 -64l-93 123q118 107 214 107t162 -40t122 -40t123 61l92 -121q-113 -106 -227 -106zM1413 1458l-293 -1458h-229l-379 911l-184 -911h-271l293 1458h230l381 -913l182 913h270z" />
    <glyph glyph-name="Ograve" unicode="&#xd2;" horiz-adv-x="1251" 
d="M911 1593h-161l-152 344h260zM948 1033q0 95 -53 147t-131 53q-117 0 -199 -88q-43 -45 -73 -131t-70 -295q-41 -209 -41 -299t54 -142t132 -53q117 0 199 88q43 45 73 131q29 86 69 290t40 299zM1223 1057q0 -88 -46 -329q-45 -240 -89 -362t-129 -207t-195 -128
t-217 -43q-201 0 -320 118t-118 295q0 88 46 329t89 363t128 207q86 86 194 128t216 42q201 0 321 -118t120 -295z" />
    <glyph glyph-name="Oacute" unicode="&#xd3;" horiz-adv-x="1251" 
d="M1169 1937l-286 -344h-172l190 344h268zM948 1033q0 95 -53 147t-131 53q-117 0 -199 -88q-43 -45 -73 -131t-70 -295q-41 -209 -41 -299t54 -142t132 -53q117 0 199 88q43 45 73 131q29 86 69 290t40 299zM1223 1057q0 -88 -46 -329q-45 -240 -89 -362t-129 -207
t-195 -128t-217 -43q-201 0 -320 118t-118 295q0 88 46 329t89 363t128 207q86 86 194 128t216 42q201 0 321 -118t120 -295z" />
    <glyph glyph-name="Ocircumflex" unicode="&#xd4;" horiz-adv-x="1251" 
d="M1178 1593h-189l-121 193l-202 -193h-207l325 349h205zM948 1033q0 95 -53 147t-131 53q-117 0 -199 -88q-43 -45 -73 -131t-70 -295q-41 -209 -41 -299t54 -142t132 -53q117 0 199 88q43 45 73 131q29 86 69 290t40 299zM1223 1057q0 -88 -46 -329q-45 -240 -89 -362
t-129 -207t-195 -128t-217 -43q-201 0 -320 118t-118 295q0 88 46 329t89 363t128 207q86 86 194 128t216 42q201 0 321 -118t120 -295z" />
    <glyph glyph-name="Otilde" unicode="&#xd5;" horiz-adv-x="1251" 
d="M975 1618q-83 0 -149 40t-121 40t-123 -64l-93 123q117 107 213 107t163 -40t123 -40t122 61l92 -121q-113 -106 -227 -106zM948 1033q0 95 -53 147t-131 53q-117 0 -199 -88q-43 -45 -73 -131t-70 -295q-41 -209 -41 -299t54 -142t132 -53q117 0 199 88q43 45 73 131
q29 86 69 290t40 299zM1223 1057q0 -88 -46 -329q-45 -240 -89 -362t-129 -207t-195 -128t-217 -43q-201 0 -320 118t-118 295q0 88 46 329t89 363t128 207q86 86 194 128t216 42q201 0 321 -118t120 -295z" />
    <glyph glyph-name="Odieresis" unicode="&#xd6;" horiz-adv-x="1251" 
d="M764 1847l-49 -250h-217l49 250h217zM1192 1847l-49 -250h-217l49 250h217zM948 1033q0 95 -53 147t-131 53q-117 0 -199 -88q-43 -45 -73 -131t-70 -295q-41 -209 -41 -299t54 -142t132 -53q117 0 199 88q43 45 73 131q29 86 69 290t40 299zM1223 1057q0 -88 -46 -329
q-45 -240 -89 -362t-129 -207t-195 -128t-217 -43q-201 0 -320 118t-118 295q0 88 46 329t89 363t128 207q86 86 194 128t216 42q201 0 321 -118t120 -295z" />
    <glyph glyph-name="multiply" unicode="&#xd7;" 
d="M1032 864l-332 -289l220 -286l-185 -160l-217 291l-332 -289l-135 176l332 287l-219 289l186 159l217 -288l330 286z" />
    <glyph glyph-name="Oslash" unicode="&#xd8;" horiz-adv-x="1257" 
d="M764 1233q-117 0 -199 -88q-43 -45 -73 -131t-70 -295q-41 -209 -41 -297v-4l500 776q-47 39 -117 39zM948 1036v6l-497 -778q51 -39 116 -39q117 0 199 88q43 45 73 131q29 86 69 290t40 302zM1227 1057q0 -88 -46 -329q-46 -240 -89 -362q-42 -122 -128 -207t-196 -128
t-232 -43q-120 0 -214 53l-86 -131h-197l154 235q-86 109 -87 256q0 88 46 329t90 363q43 122 128 207q86 86 196 128t230 42t216 -53l86 131h196l-153 -235q86 -111 86 -256z" />
    <glyph glyph-name="Ugrave" unicode="&#xd9;" horiz-adv-x="1300" 
d="M944 1593h-162l-151 344h260zM584 -12q-202 0 -330 114q-127 114 -127 301q0 53 14 125l187 930h270l-190 -946q-10 -61 -11 -90q0 -82 48 -138t155 -56q106 0 184 76q78 77 107 222l186 932h271l-193 -958q-51 -256 -210 -384t-361 -128z" />
    <glyph glyph-name="Uacute" unicode="&#xda;" horiz-adv-x="1300" 
d="M1202 1937l-287 -344h-172l191 344h268zM584 -12q-202 0 -330 114q-127 114 -127 301q0 53 14 125l187 930h270l-190 -946q-10 -61 -11 -90q0 -82 48 -138t155 -56q106 0 184 76q78 77 107 222l186 932h271l-193 -958q-51 -256 -210 -384t-361 -128z" />
    <glyph glyph-name="Ucircumflex" unicode="&#xdb;" horiz-adv-x="1300" 
d="M1212 1593h-188l-121 193l-203 -193h-206l325 349h205zM584 -12q-202 0 -330 114q-127 114 -127 301q0 53 14 125l187 930h270l-190 -946q-10 -61 -11 -90q0 -82 48 -138t155 -56q106 0 184 76q78 77 107 222l186 932h271l-193 -958q-51 -256 -210 -384t-361 -128z" />
    <glyph glyph-name="Udieresis" unicode="&#xdc;" horiz-adv-x="1300" 
d="M797 1847l-49 -250h-218l50 250h217zM1225 1847l-49 -250h-218l50 250h217zM584 -12q-202 0 -330 114q-127 114 -127 301q0 53 14 125l187 930h270l-190 -946q-10 -61 -11 -90q0 -82 48 -138t155 -56q106 0 184 76q78 77 107 222l186 932h271l-193 -958
q-51 -256 -210 -384t-361 -128z" />
    <glyph glyph-name="Yacute" unicode="&#xdd;" horiz-adv-x="1126" 
d="M1090 1937l-287 -344h-172l190 344h269zM1300 1458l-585 -870l-119 -588h-270l120 598l-264 860h287l156 -604l376 604h299z" />
    <glyph glyph-name="Thorn" unicode="&#xde;" horiz-adv-x="1230" 
d="M932 776q0 168 -164 168h-250l-84 -414h242q124 0 190 76t66 170zM811 1184q181 0 287 -106t106 -296t-145 -341t-395 -150h-279l-57 -291h-271l293 1458h271l-56 -274h246z" />
    <glyph glyph-name="germandbls" unicode="&#xdf;" horiz-adv-x="1120" 
d="M729 1251q-101 0 -153 -50t-72 -148l-211 -1053h-256l215 1073q43 217 170 307q128 90 316 90t289 -82t101 -231q0 -84 -43 -163t-129 -124q84 -51 84 -155q0 -27 -6 -58l-61 -327q-33 -172 -124 -251t-253 -79h-121l43 213h55q49 0 93 33q41 33 55 102l59 303q4 33 4 41
q0 84 -94 84h-63l41 199h59q68 0 107 47t38 111q0 118 -143 118z" />
    <glyph glyph-name="agrave" unicode="&#xe0;" horiz-adv-x="1042" 
d="M735 1231h-164l-151 342h262zM455 459q-84 0 -133 -46t-50 -118q0 -100 136 -100q100 0 156 56t73 144l12 64h-194zM961 782q0 -47 -11 -94l-139 -688h-244l19 94q-104 -104 -250 -104t-230 79t-83 201q1 156 105 260t302 103h254l14 63q6 27 7 56q-1 114 -149 114
t-239 -100l-131 170q139 143 396 143q156 -1 268 -71t111 -226z" />
    <glyph glyph-name="aacute" unicode="&#xe1;" horiz-adv-x="1042" 
d="M993 1573l-286 -342h-172l190 342h268zM455 459q-84 0 -133 -46t-50 -118q0 -100 136 -100q100 0 156 56t73 144l12 64h-194zM961 782q0 -47 -11 -94l-139 -688h-244l19 94q-104 -104 -250 -104t-230 79t-83 201q1 156 105 260t302 103h254l14 63q6 27 7 56
q-1 114 -149 114t-239 -100l-131 170q139 143 396 143q156 -1 268 -71t111 -226z" />
    <glyph glyph-name="acircumflex" unicode="&#xe2;" horiz-adv-x="1042" 
d="M999 1231h-186l-123 192l-201 -192h-206l325 346h203zM455 459q-84 0 -133 -46t-50 -118q0 -100 136 -100q100 0 156 56t73 144l12 64h-194zM961 782q0 -47 -11 -94l-139 -688h-244l19 94q-104 -104 -250 -104t-230 79t-83 201q1 156 105 260t302 103h254l14 63
q6 27 7 56q-1 114 -149 114t-239 -100l-131 170q139 143 396 143q156 -1 268 -71t111 -226z" />
    <glyph glyph-name="atilde" unicode="&#xe3;" horiz-adv-x="1042" 
d="M524 1323q-56 0 -121 -63l-92 122q113 106 226 107q82 0 148 -40q67 -40 123 -40t122 61l92 -120q-113 -106 -227 -107q-83 0 -149 40t-122 40zM455 459q-84 0 -133 -46t-50 -118q0 -100 136 -100q100 0 156 56t73 144l12 64h-194zM961 782q0 -47 -11 -94l-139 -688h-244
l19 94q-104 -104 -250 -104t-230 79t-83 201q1 156 105 260t302 103h254l14 63q6 27 7 56q-1 114 -149 114t-239 -100l-131 170q139 143 396 143q156 -1 268 -71t111 -226z" />
    <glyph glyph-name="adieresis" unicode="&#xe4;" horiz-adv-x="1042" 
d="M588 1485l-49 -250h-217l49 250h217zM1016 1485l-49 -250h-217l49 250h217zM455 459q-84 0 -133 -46t-50 -118q0 -100 136 -100q100 0 156 56t73 144l12 64h-194zM961 782q0 -47 -11 -94l-139 -688h-244l19 94q-104 -104 -250 -104t-230 79t-83 201q1 156 105 260
t302 103h254l14 63q6 27 7 56q-1 114 -149 114t-239 -100l-131 170q139 143 396 143q156 -1 268 -71t111 -226z" />
    <glyph glyph-name="aring" unicode="&#xe5;" horiz-adv-x="1042" 
d="M803 1455q0 48 -37 83t-84 35t-83 -35t-36 -83t36 -84t83 -36t84 36t37 84zM942 1456q0 -112 -76 -186t-183 -74t-183 75t-76 185t76 184t184 74t182 -74q76 -74 76 -184zM455 459q-84 0 -133 -46t-50 -118q0 -100 136 -100q100 0 156 56t73 144l12 64h-194zM961 782
q0 -47 -11 -94l-139 -688h-244l19 94q-104 -104 -250 -104t-230 79t-83 201q1 156 105 260t302 103h254l14 63q6 27 7 56q-1 114 -149 114t-239 -100l-131 170q139 143 396 143q156 -1 268 -71t111 -226z" />
    <glyph glyph-name="ae" unicode="&#xe6;" horiz-adv-x="1642" 
d="M1325 700q0 80 -41 125t-110 45q-182 0 -248 -241h391q8 44 8 71zM455 457q-84 0 -133 -45t-50 -117q0 -100 136 -100q100 0 156 56t73 142l12 64h-194zM1567 700q0 -94 -33 -243h-641q-6 -43 -6 -76q0 -82 46 -130t136 -48q139 0 254 108l131 -168q-164 -155 -398 -155
t-341 149q-139 -150 -353 -149q-160 0 -250 74t-89 220q0 144 92 236q111 111 315 111h254l14 63q6 25 7 60q-1 114 -149 114t-239 -100l-131 170q139 143 396 143q205 0 299 -114q125 115 301 115t280 -104q104 -102 105 -276z" />
    <glyph glyph-name="ccedilla" unicode="&#xe7;" horiz-adv-x="937" 
d="M528 -117l-141 -295h-240l191 295h190zM608 852q-84 0 -158 -77t-104 -240q-14 -82 -14 -153t39 -119t123 -48t176 90l141 -182q-145 -135 -352 -135q-162 0 -273 100t-110 281q0 78 22 200q22 121 81 233q58 112 134 169q147 110 333 109q187 -1 302 -148l-190 -168
q-66 88 -150 88z" />
    <glyph glyph-name="egrave" unicode="&#xe8;" horiz-adv-x="1073" 
d="M768 1231h-164l-151 342h262zM756 698q0 82 -41 127t-111 45q-178 0 -246 -243h392q6 32 6 71zM997 698q0 -92 -32 -241h-639q-8 -57 -9 -76q1 -82 47 -130t136 -48q139 0 254 108l133 -168q-164 -156 -416 -155q-163 0 -279 91t-116 280t57 349t184 265q127 106 300 106
t277 -103q103 -104 103 -278z" />
    <glyph glyph-name="eacute" unicode="&#xe9;" horiz-adv-x="1073" 
d="M1026 1573l-287 -342h-172l191 342h268zM756 698q0 82 -41 127t-111 45q-178 0 -246 -243h392q6 32 6 71zM997 698q0 -92 -32 -241h-639q-8 -57 -9 -76q1 -82 47 -130t136 -48q139 0 254 108l133 -168q-164 -156 -416 -155q-163 0 -279 91t-116 280t57 349t184 265
q127 106 300 106t277 -103q103 -104 103 -278z" />
    <glyph glyph-name="ecircumflex" unicode="&#xea;" horiz-adv-x="1073" 
d="M1032 1231h-186l-123 192l-201 -192h-207l326 346h203zM756 698q0 82 -41 127t-111 45q-178 0 -246 -243h392q6 32 6 71zM997 698q0 -92 -32 -241h-639q-8 -57 -9 -76q1 -82 47 -130t136 -48q139 0 254 108l133 -168q-164 -156 -416 -155q-163 0 -279 91t-116 280t57 349
t184 265q127 106 300 106t277 -103q103 -104 103 -278z" />
    <glyph glyph-name="edieresis" unicode="&#xeb;" horiz-adv-x="1073" 
d="M621 1485l-50 -250h-217l49 250h218zM1049 1485l-50 -250h-217l49 250h218zM756 698q0 82 -41 127t-111 45q-178 0 -246 -243h392q6 32 6 71zM997 698q0 -92 -32 -241h-639q-8 -57 -9 -76q1 -82 47 -130t136 -48q139 0 254 108l133 -168q-164 -156 -416 -155
q-163 0 -279 91t-116 280t57 349t184 265q127 106 300 106t277 -103q103 -104 103 -278z" />
    <glyph glyph-name="igrave" unicode="&#xec;" horiz-adv-x="536" 
d="M494 1231h-164l-152 342h262zM504 1067l-213 -1067h-254l213 1067h254z" />
    <glyph glyph-name="iacute" unicode="&#xed;" horiz-adv-x="536" 
d="M504 1067l-213 -1067h-254l213 1067h254zM758 1573l-287 -342h-172l190 342h269z" />
    <glyph glyph-name="icircumflex" unicode="&#xee;" horiz-adv-x="536" 
d="M760 1231h-187l-122 192l-201 -192h-207l326 346h202zM504 1067l-213 -1067h-254l213 1067h254z" />
    <glyph glyph-name="idieresis" unicode="&#xef;" horiz-adv-x="536" 
d="M770 1485l-49 -250h-217l49 250h217zM340 1485l-49 -250h-217l49 250h217zM504 1067l-213 -1067h-254l213 1067h254z" />
    <glyph glyph-name="eth" unicode="&#xf0;" horiz-adv-x="1054" 
d="M713 688q0 137 -123 137q-72 0 -123 -47q-66 -59 -105 -258q-22 -116 -22 -180t37 -96t97 -31q60 0 120 54t98 253q21 107 21 168zM86 338q0 76 27 209t67 224q41 91 117 166q77 75 179 94t171 7l-43 133h-229l35 177h143l-39 127h262l37 -127h178l-35 -177h-94l51 -161
q53 -184 53 -286t-20 -204q-59 -301 -187 -417t-319 -115q-145 0 -250 88q-104 88 -104 262z" />
    <glyph glyph-name="ntilde" unicode="&#xf1;" horiz-adv-x="1114" 
d="M575 1323q-56 0 -120 -63l-93 122q113 106 226 107q82 0 148 -40t122 -40t123 61l92 -120q-113 -106 -227 -107q-82 0 -148 40t-123 40zM1028 784q0 -37 -14 -118l-133 -666h-254l129 649q8 45 8 70q0 65 -37 99t-97 34t-124 -46q-63 -46 -86 -159l-129 -647h-254
l213 1067h244l-21 -102q111 115 281 114q110 0 192 -74t82 -221z" />
    <glyph glyph-name="ograve" unicode="&#xf2;" horiz-adv-x="1052" 
d="M758 1231h-164l-152 342h263zM725 712q0 62 -36 101q-37 39 -107 39t-123 -53q-70 -66 -109 -264q-22 -117 -22 -179t37 -102q37 -39 107 -39t122 53q68 66 108 267q23 115 23 177zM977 727q0 -70 -26 -212q-96 -527 -513 -527q-141 0 -252 88t-110 266q0 57 22 193
q31 162 75 257t116 164q127 123 327 123q141 0 251 -87t110 -265z" />
    <glyph glyph-name="oacute" unicode="&#xf3;" horiz-adv-x="1052" 
d="M1016 1573l-287 -342h-172l191 342h268zM725 712q0 62 -36 101q-37 39 -107 39t-123 -53q-70 -66 -109 -264q-22 -117 -22 -179t37 -102q37 -39 107 -39t122 53q68 66 108 267q23 115 23 177zM977 727q0 -70 -26 -212q-96 -527 -513 -527q-141 0 -252 88t-110 266
q0 57 22 193q31 162 75 257t116 164q127 123 327 123q141 0 251 -87t110 -265z" />
    <glyph glyph-name="ocircumflex" unicode="&#xf4;" horiz-adv-x="1052" 
d="M1022 1231h-186l-123 192l-201 -192h-207l326 346h203zM725 712q0 62 -36 101q-37 39 -107 39t-123 -53q-70 -66 -109 -264q-22 -117 -22 -179t37 -102q37 -39 107 -39t122 53q68 66 108 267q23 115 23 177zM977 727q0 -70 -26 -212q-96 -527 -513 -527q-141 0 -252 88
t-110 266q0 57 22 193q31 162 75 257t116 164q127 123 327 123q141 0 251 -87t110 -265z" />
    <glyph glyph-name="otilde" unicode="&#xf5;" horiz-adv-x="1052" 
d="M546 1323q-56 0 -120 -63l-92 122q113 106 210 106q98 0 164 -39q66 -40 122 -40t122 61l92 -120q-113 -106 -227 -107q-83 0 -149 40t-122 40zM725 712q0 62 -36 101q-37 39 -107 39t-123 -53q-70 -66 -109 -264q-22 -117 -22 -179t37 -102q37 -39 107 -39t122 53
q68 66 108 267q23 115 23 177zM977 727q0 -70 -26 -212q-96 -527 -513 -527q-141 0 -252 88t-110 266q0 57 22 193q31 162 75 257t116 164q127 123 327 123q141 0 251 -87t110 -265z" />
    <glyph glyph-name="odieresis" unicode="&#xf6;" horiz-adv-x="1052" 
d="M610 1485l-49 -250h-217l49 250h217zM1038 1485l-49 -250h-217l49 250h217zM725 712q0 62 -36 101q-37 39 -107 39t-123 -53q-70 -66 -109 -264q-22 -117 -22 -179t37 -102q37 -39 107 -39t122 53q68 66 108 267q23 115 23 177zM977 727q0 -70 -26 -212
q-96 -527 -513 -527q-141 0 -252 88t-110 266q0 57 22 193q31 162 75 257t116 164q127 123 327 123q141 0 251 -87t110 -265z" />
    <glyph glyph-name="divide" unicode="&#xf7;" 
d="M616 313l-49 -254h-254l52 254h251zM770 1112l-51 -254h-254l51 254h254zM1004 702l-48 -235h-878l47 235h879z" />
    <glyph glyph-name="oslash" unicode="&#xf8;" horiz-adv-x="1058" 
d="M582 852q-167 0 -230 -317q-27 -136 -23 -160q3 -23 3 -27l352 475q-36 29 -102 29zM733 678q0 26 -1 32t-1 11l-352 -477q35 -29 101 -29t120 53q72 68 111 267q22 117 22 143zM442 -12q-125 0 -204 55l-99 -133h-155l159 215q-66 86 -65 217q0 57 22 193q31 162 75 257
t116 164q127 123 330 123q117 0 202 -53l99 131h155l-159 -213q68 -88 67 -217q0 -57 -22 -192q-31 -163 -75 -259t-116 -165q-127 -123 -330 -123z" />
    <glyph glyph-name="ugrave" unicode="&#xf9;" horiz-adv-x="1114" 
d="M772 1231h-164l-151 342h262zM90 285q0 47 12 116l134 666h253l-129 -649q-8 -45 -8 -70q0 -66 37 -100t99 -33q62 0 123 46q62 46 85 159l129 647h254l-211 -1067h-243l18 102q-111 -115 -281 -114q-106 0 -189 74t-83 223z" />
    <glyph glyph-name="uacute" unicode="&#xfa;" horiz-adv-x="1114" 
d="M1030 1573l-287 -342h-172l191 342h268zM90 285q0 47 12 116l134 666h253l-129 -649q-8 -45 -8 -70q0 -66 37 -100t99 -33q62 0 123 46q62 46 85 159l129 647h254l-211 -1067h-243l18 102q-111 -115 -281 -114q-106 0 -189 74t-83 223z" />
    <glyph glyph-name="ucircumflex" unicode="&#xfb;" horiz-adv-x="1114" 
d="M1036 1231h-186l-123 192l-201 -192h-207l326 346h203zM90 285q0 47 12 116l134 666h253l-129 -649q-8 -45 -8 -70q0 -66 37 -100t99 -33q62 0 123 46q62 46 85 159l129 647h254l-211 -1067h-243l18 102q-111 -115 -281 -114q-106 0 -189 74t-83 223z" />
    <glyph glyph-name="udieresis" unicode="&#xfc;" horiz-adv-x="1114" 
d="M625 1485l-50 -250h-217l50 250h217zM1053 1485l-49 -250h-218l50 250h217zM90 285q0 47 12 116l134 666h253l-129 -649q-8 -45 -8 -70q0 -66 37 -100t99 -33q62 0 123 46q62 46 85 159l129 647h254l-211 -1067h-243l18 102q-111 -115 -281 -114q-106 0 -189 74t-83 223z
" />
    <glyph glyph-name="yacute" unicode="&#xfd;" horiz-adv-x="950" 
d="M958 1573l-286 -342h-172l190 342h268zM47 -391h-98l47 229h57q53 0 84 26t62 85l67 127l-151 991h252l77 -688l342 688h269l-666 -1239q-41 -78 -88 -125q-94 -94 -254 -94z" />
    <glyph glyph-name="thorn" unicode="&#xfe;" horiz-adv-x="1091" 
d="M762 705q0 147 -127 147q-105 0 -155 -77t-78 -219t-27 -194q0 -147 127 -147q104 0 154 78q50 79 78 221t28 191zM1026 779q0 -79 -35 -251t-71 -274q-95 -267 -365 -266q-174 0 -242 110l-100 -489h-254l369 1849h254l-97 -479q96 100 254 100q104 0 172 -48
q67 -49 91 -111t24 -141z" />
    <glyph glyph-name="ydieresis" unicode="&#xff;" horiz-adv-x="950" 
d="M551 1485l-49 -250h-217l49 250h217zM979 1485l-49 -250h-217l49 250h217zM47 -391h-98l47 229h57q53 0 84 26t62 85l67 127l-151 991h252l77 -688l342 688h269l-666 -1239q-41 -78 -88 -125q-94 -94 -254 -94z" />
    <glyph glyph-name="dotlessi" unicode="&#x131;" horiz-adv-x="536" 
d="M504 1067l-213 -1067h-254l213 1067h254z" />
    <glyph glyph-name="Lslash" unicode="&#x141;" horiz-adv-x="1161" 
d="M1047 238l-46 -238h-909l103 502l-144 -84l47 239l144 82l143 719h270l-108 -545l282 166l-49 -241l-280 -164l-88 -436h635z" />
    <glyph glyph-name="lslash" unicode="&#x142;" horiz-adv-x="659" 
d="M371 276q0 -61 80 -61h104l-45 -215h-137q-113 0 -186 62t-72 169q0 49 8 88l61 302l-121 -70l46 227l118 68l123 612h252l-92 -459l135 76l-47 -227l-131 -76l-90 -450q-6 -27 -6 -46z" />
    <glyph glyph-name="OE" unicode="&#x152;" horiz-adv-x="1880" 
d="M950 1037q0 89 -52 143t-132 53q-197 0 -271 -218q-30 -85 -72 -294t-42 -299t52 -143t132 -54q117 0 199 88q43 45 73 131q29 86 71 295t42 298zM1956 1458l-47 -239h-637l-72 -363h547l-49 -240h-545l-76 -376h647l-47 -240h-889l19 98q-104 -110 -278 -110t-298 114
q-123 115 -122 299q0 88 46 329t89 363t133 212q166 166 403 165q188 0 264 -122l23 110h889z" />
    <glyph glyph-name="oe" unicode="&#x153;" horiz-adv-x="1685" 
d="M1366 698q0 82 -41 127t-111 45q-178 0 -245 -243h391q6 32 6 71zM725 712q0 62 -36 101q-37 39 -107 39t-123 -53q-70 -66 -109 -264q-22 -117 -22 -179t37 -102q37 -39 107 -39t122 53q68 66 108 267q23 115 23 177zM1610 698q0 -92 -33 -241h-641q-8 -57 -8 -76
q0 -82 47 -130t137 -48q137 0 252 108l133 -168q-164 -156 -414 -155q-213 0 -311 141q-123 -141 -334 -141q-141 0 -252 88t-110 266q0 57 22 193q31 162 75 257t116 164q127 123 322 123t288 -139q125 139 313 139q188 -1 294 -103q104 -102 104 -278z" />
    <glyph glyph-name="Scaron" unicode="&#x160;" horiz-adv-x="1153" 
d="M1223 1942l-326 -349h-205l-188 349h188l121 -195l203 195h207zM463 1025q0 -74 41 -105t114 -50l121 -28q178 -43 254 -132t76 -247q0 -233 -168 -354t-416 -121q-171 0 -285 46t-206 154l196 172q113 -133 320 -133q121 -1 205 61t84 143t-38 116t-116 53l-121 31
q-170 43 -251 134t-80 212q0 215 154 354q155 139 423 139t412 -176l-191 -166q-90 106 -258 107q-121 0 -195 -68t-75 -142z" />
    <glyph glyph-name="scaron" unicode="&#x161;" horiz-adv-x="972" 
d="M1077 1577l-327 -346h-203l-191 346h191l121 -193l202 193h207zM377 741q0 -66 98 -79l137 -23q258 -41 258 -277q0 -147 -116 -261q-116 -113 -375 -113q-258 0 -406 159l183 160q88 -102 245 -102q102 0 160 40q57 40 57 93q0 72 -100 88l-139 23q-135 23 -196 89
q-60 67 -60 152q-1 158 115 274t344 115q228 0 358 -131l-174 -153q-74 76 -203 75q-90 0 -138 -38t-48 -91z" />
    <glyph glyph-name="Ydieresis" unicode="&#x178;" horiz-adv-x="1126" 
d="M1116 1847l-49 -250h-215l49 250h215zM686 1847l-49 -250h-215l49 250h215zM1300 1458l-585 -870l-119 -588h-270l120 598l-264 860h287l156 -604l376 604h299z" />
    <glyph glyph-name="Zcaron" unicode="&#x17d;" horiz-adv-x="1077" 
d="M1176 1942l-326 -349h-205l-188 349h188l121 -195l203 195h207zM1178 1458l-43 -211l-783 -1007h594l-49 -240h-922l45 215l777 1004h-564l48 239h897z" />
    <glyph glyph-name="zcaron" unicode="&#x17e;" horiz-adv-x="944" 
d="M1040 1577l-327 -346h-203l-191 346h191l121 -193l203 193h206zM963 1067l-39 -195l-572 -645h457l-45 -227h-791l39 195l568 645h-426l45 227h764z" />
    <glyph glyph-name="florin" unicode="&#x192;" horiz-adv-x="831" 
d="M788 1262q-92 0 -126 -99l-127 -350h190l-41 -192h-219l-371 -1012h-254l371 1012h-131l37 192h166l129 356q59 166 156 235t255 69h138l-41 -211h-132z" />
    <glyph glyph-name="dotlessj" unicode="&#x237;" horiz-adv-x="536" 
d="M-72 -399h-157l43 215h92q94 0 114 108l230 1143h254l-232 -1165q-28 -141 -116 -221t-228 -80z" />
    <glyph glyph-name="circumflex" unicode="&#x2c6;" horiz-adv-x="1052" 
d="M1022 1231h-186l-123 192l-201 -192h-207l326 346h203z" />
    <glyph glyph-name="caron" unicode="&#x2c7;" horiz-adv-x="1052" 
d="M1098 1577l-328 -346h-203l-190 346h190l121 -193l203 193h207z" />
    <glyph glyph-name="breve" unicode="&#x2d8;" horiz-adv-x="1052" 
d="M389 1456q0 33 4 66h170q-6 -64 31 -98t96 -33q137 0 170 131h172q-61 -307 -358 -308q-127 0 -206 72t-79 170z" />
    <glyph glyph-name="dotaccent" unicode="&#x2d9;" horiz-adv-x="1052" 
d="M825 1481l-45 -234h-221l49 234h217z" />
    <glyph glyph-name="ring" unicode="&#x2da;" horiz-adv-x="1052" 
d="M821 1455q0 48 -37 83t-84 35t-83 -35q-35 -35 -35 -83t36 -84t82 -36q47 0 84 36t37 84zM961 1456q0 -112 -76 -186q-75 -74 -183 -74t-184 75t-76 185t76 184t184 74t183 -74q76 -74 76 -184z" />
    <glyph glyph-name="ogonek" unicode="&#x2db;" horiz-adv-x="1052" 
d="M526 -117l-141 -295h-240l191 295h190z" />
    <glyph glyph-name="tilde" unicode="&#x2dc;" horiz-adv-x="1052" 
d="M546 1323q-56 0 -120 -63l-92 122q113 106 210 106q98 0 164 -39q66 -40 122 -40t122 61l92 -120q-113 -106 -227 -107q-83 0 -149 40t-122 40z" />
    <glyph glyph-name="hungarumlaut" unicode="&#x2dd;" horiz-adv-x="1052" 
d="M827 1573l-284 -344h-172l188 344h268zM1233 1573q-193 -229 -287 -344h-172l191 344h268z" />
    <glyph glyph-name="Delta" unicode="&#x394;" horiz-adv-x="1236" 
d="M840 225l-99 826l-438 -826h537zM1126 0h-1224l796 1458h215z" />
    <glyph glyph-name="Omega" unicode="&#x3a9;" horiz-adv-x="1251" 
d="M1223 1057q0 -88 -39 -291t-67 -286q-28 -84 -74 -148t-78 -92h127l-50 -240h-434l41 211q70 29 113 78t73 136q29 87 71 304t42 310t-52 143t-126 49q-121 0 -205 -86q-41 -43 -71 -133t-75 -312q-44 -222 -44 -309q0 -131 102 -180l-41 -211h-416l48 240h125
q-70 92 -70 212t39 320q39 199 82 321t128 207q86 86 194 128t216 42q201 0 321 -118t120 -295z" />
    <glyph glyph-name="mu" unicode="&#x3bc;" horiz-adv-x="1122" 
d="M494 215q60 0 124 46q63 46 87 159l129 647h253l-213 -1067h-243l20 102q-111 -115 -280 -114q-51 0 -82 30l-82 -409h-254l291 1458h254l-131 -649q-22 -122 30 -170q37 -34 97 -33z" />
    <glyph glyph-name="pi" unicode="&#x3c0;" horiz-adv-x="1257" 
d="M1294 1067l-43 -207h-133l-174 -860h-254l174 860h-336l-172 -860h-254l172 860h-143l41 207h1122z" />
    <glyph glyph-name="endash" unicode="&#x2013;" 
d="M995 702l-47 -235h-860l45 235h862z" />
    <glyph glyph-name="emdash" unicode="&#x2014;" horiz-adv-x="1996" 
d="M1923 713l-49 -244h-1770l48 244h1771z" />
    <glyph glyph-name="quoteleft" unicode="&#x2018;" horiz-adv-x="528" 
d="M627 1673l-92 -467h-265l49 252z" />
    <glyph glyph-name="quoteright" unicode="&#x2019;" horiz-adv-x="528" 
d="M584 1458l-49 -254l-308 -213l92 467h265z" />
    <glyph glyph-name="quotesinglbase" unicode="&#x201a;" horiz-adv-x="528" 
d="M344 254l-51 -254l-305 -213l92 467h264z" />
    <glyph glyph-name="quotedblleft" unicode="&#x201c;" horiz-adv-x="937" 
d="M627 1673l-95 -467h-262l49 252zM1036 1673l-94 -467h-262l49 252z" />
    <glyph glyph-name="quotedblright" unicode="&#x201d;" horiz-adv-x="937" 
d="M584 1458l-52 -254l-305 -213l92 467h265zM993 1458l-51 -254l-305 -213l92 467h264z" />
    <glyph glyph-name="quotedblbase" unicode="&#x201e;" horiz-adv-x="937" 
d="M342 254l-49 -254l-305 -213l92 467h262zM754 254l-52 -254l-307 -213l92 467h267z" />
    <glyph glyph-name="dagger" unicode="&#x2020;" horiz-adv-x="1126" 
d="M1126 1077l-45 -225h-325l-170 -852h-254l170 852h-326l45 225h326l76 381h254l-76 -381h325z" />
    <glyph glyph-name="daggerdbl" unicode="&#x2021;" horiz-adv-x="1126" 
d="M1126 1077l-45 -225h-325l-127 -625h329l-45 -225h-329l-78 -393h-252l78 393h-324l45 225h324l125 625h-326l45 225h326l76 381h254l-76 -381h325z" />
    <glyph glyph-name="bullet" unicode="&#x2022;" horiz-adv-x="960" 
d="M827 684q0 -139 -88 -227t-227 -88t-227 88t-88 227t88 227t227 88t227 -88t88 -227z" />
    <glyph glyph-name="ellipsis" unicode="&#x2026;" horiz-adv-x="1646" 
d="M358 279l-53 -279h-276l57 279h272zM1464 279l-53 -279h-276l57 279h272zM913 279l-57 -279h-274l55 279h276z" />
    <glyph glyph-name="perthousand" unicode="&#x2030;" horiz-adv-x="2377" 
d="M537 1307q-96 0 -119 -119l-37 -191q-4 -33 -4 -43q0 -84 82 -84q96 0 119 119l36 193l7 41q0 84 -84 84zM1296 588q-96 0 -118 -119l-37 -190q-4 -33 -4 -43q0 -84 82 -84q96 0 118 118l37 193l6 41q0 84 -84 84zM2001 588q-96 0 -119 -119l-37 -190q-4 -33 -4 -43
q0 -84 82 -84q98 0 121 118l35 193l6 41q0 84 -84 84zM1454 1458l-948 -1458h-205l948 1458h205zM1563 526q0 -31 -7 -65l-34 -191q-53 -283 -328 -282q-100 0 -171 58t-71 169q0 31 6 66l37 190q53 281 326 281q100 0 171 -58t71 -168zM2267 526q0 -31 -6 -65l-35 -191
q-53 -283 -328 -282q-100 0 -171 58t-70 169q0 31 6 66l37 190q53 281 325 281q100 0 171 -58t71 -168zM803 1245q0 -33 -6 -65l-35 -191q-53 -283 -328 -282q-100 0 -171 58t-70 169q0 33 6 65l34 191q53 281 328 280q100 0 171 -57t71 -168z" />
    <glyph glyph-name="guilsinglleft" unicode="&#x2039;" horiz-adv-x="681" 
d="M662 1067l-68 -328l-227 -196l149 -197l-55 -291l-387 510z" />
    <glyph glyph-name="guilsinglright" unicode="&#x203a;" horiz-adv-x="681" 
d="M625 559l-588 -504l65 328l228 197l-150 198l58 289z" />
    <glyph glyph-name="fraction" unicode="&#x2044;" horiz-adv-x="409" 
d="M821 1458l-946 -1458h-205l948 1458h203z" />
    <glyph glyph-name="Euro" unicode="&#x20ac;" horiz-adv-x="1331" 
d="M1044 1020q-4 213 -198 213q-104 0 -187 -84q-55 -55 -88 -180h291l-33 -160h-299l-30 -154h301l-29 -159h-295q-4 -29 -4 -74q0 -92 53 -144q52 -52 142 -52t162 58q72 60 108 154h279q-69 -213 -217 -332q-148 -118 -353 -118t-327 118t-121 295q0 37 10 95h-141
l28 159h135l31 154h-135l29 160h141q57 225 168 336q166 165 394 165t342 -124t114 -326h-271z" />
    <glyph glyph-name="trademark" unicode="&#x2122;" horiz-adv-x="1798" 
d="M883 1458l-31 -166h-211l-143 -708h-183l142 708h-217l32 166h611zM1862 1458l-172 -874h-189l105 518l-217 -314h-162l-94 318l-107 -522h-184l172 874h182l143 -467l334 467h189z" />
    <glyph glyph-name="uni2126" unicode="&#x2126;" horiz-adv-x="1251" 
d="M1223 1057q0 -88 -39 -291t-67 -286q-28 -84 -74 -148t-78 -92h127l-50 -240h-434l41 211q70 29 113 78t73 136q29 87 71 304t42 310t-52 143t-126 49q-121 0 -205 -86q-41 -43 -71 -133t-75 -312q-44 -222 -44 -309q0 -131 102 -180l-41 -211h-416l48 240h125
q-70 92 -70 212t39 320q39 199 82 321t128 207q86 86 194 128t216 42q201 0 321 -118t120 -295z" />
    <glyph glyph-name="arrowleft" unicode="&#x2190;" horiz-adv-x="2103" 
d="M2001 709v-252h-1442l670 -662h-336l-791 789l791 788h336l-670 -663h1442z" />
    <glyph glyph-name="arrowup" unicode="&#x2191;" horiz-adv-x="2103" 
d="M1178 -365h-250v1444l-664 -669v335l789 789l788 -789v-335l-663 669v-1444z" />
    <glyph glyph-name="arrowright" unicode="&#x2192;" horiz-adv-x="2103" 
d="M104 459v250h1444l-669 663h335l789 -788l-789 -789h-335l669 664h-1444z" />
    <glyph glyph-name="arrowdown" unicode="&#x2193;" horiz-adv-x="2103" 
d="M926 1534h252v-1442l661 670v-336l-788 -791l-789 791v336l664 -670v1442z" />
    <glyph glyph-name="uni2196" unicode="&#x2196;" horiz-adv-x="2103" 
d="M379 1255h1116l240 -237l-942 2l1017 -1018l-178 -176l-1018 1018l2 -942l-237 237v1116z" />
    <glyph glyph-name="uni2197" unicode="&#x2197;" horiz-adv-x="2103" 
d="M1722 1255v-1114l-237 -237l4 940l-1020 -1018l-178 176l1020 1020l-942 -4l239 237h1114z" />
    <glyph glyph-name="uni2198" unicode="&#x2198;" horiz-adv-x="2103" 
d="M1722 -174h-1114l-239 237l942 -6l-1020 1020l178 178l1020 -1017l-4 940l237 -238v-1114z" />
    <glyph glyph-name="uni2199" unicode="&#x2199;" horiz-adv-x="2103" 
d="M379 -174v1116l237 238l-2 -942l1018 1017l178 -178l-1017 -1018l942 4l-240 -237h-1116z" />
    <glyph glyph-name="partialdiff" unicode="&#x2202;" horiz-adv-x="1079" 
d="M707 698q0 52 -35 88q-36 36 -98 37q-62 0 -109 -45q-63 -55 -95 -220q-32 -166 -30 -218q0 -52 35 -88t97 -37q62 0 110 45q61 55 93 221q32 165 32 217zM1036 1102q0 -59 -10 -117l-88 -465q-31 -154 -67 -248t-107 -166q-119 -118 -298 -118t-279 94q-99 94 -99 264
q0 72 26 201t66 228q41 99 119 169q117 106 295 107q125 0 180 -70l10 68q4 25 4 36q0 170 -170 170q-70 0 -116 -18t-105 -66l-129 170q152 129 373 129q175 0 285 -94t110 -274z" />
    <glyph glyph-name="uni2206" unicode="&#x2206;" horiz-adv-x="1236" 
d="M840 225l-99 826l-438 -826h537zM1126 0h-1224l796 1458h215z" />
    <glyph glyph-name="product" unicode="&#x220f;" horiz-adv-x="1333" 
d="M1378 1556l-387 -1947h-270l340 1712h-467l-344 -1712h-268l387 1947h1009z" />
    <glyph glyph-name="summation" unicode="&#x2211;" horiz-adv-x="1073" 
d="M1196 1556l-47 -237h-608l180 -608l-51 -250l-408 -615h610l-47 -237h-923l41 213l528 799l-227 731l41 204h911z" />
    <glyph glyph-name="minus" unicode="&#x2212;" 
d="M995 702l-45 -233h-862l47 233h860z" />
    <glyph glyph-name="uni2219" unicode="&#x2219;" horiz-adv-x="555" 
d="M463 729l-57 -289h-289l57 289h289z" />
    <glyph glyph-name="radical" unicode="&#x221a;" horiz-adv-x="1159" 
d="M1300 1458l-47 -237h-170l-624 -1221h-217l-127 1067h264l59 -588l482 979h380z" />
    <glyph glyph-name="infinity" unicode="&#x221e;" horiz-adv-x="1654" 
d="M490 707q-52 0 -90 -36q-38 -35 -38 -95t37 -95t89 -35t92 32q39 32 94 97q-55 68 -94 100t-90 32zM1319 575q0 59 -38 95t-89 37q-51 0 -90 -32t-94 -100q55 -65 94 -97t91 -32t89 35t37 94zM1563 584q-1 -160 -99 -264t-279 -105q-181 0 -343 184q-162 -184 -343 -184
t-280 104q-98 105 -98 265t98 264q97 104 279 104t344 -186q162 186 343 186t279 -104t99 -264z" />
    <glyph glyph-name="uni2224" unicode="&#x2224;" horiz-adv-x="555" 
d="M463 729l-57 -289h-289l57 289h289z" />
    <glyph glyph-name="logicaland" unicode="&#x2227;" horiz-adv-x="555" 
d="M463 729l-57 -289h-289l57 289h289z" />
    <glyph glyph-name="integral" unicode="&#x222b;" horiz-adv-x="964" 
d="M895 1260q-137 0 -166 -144l-225 -1124q-42 -209 -148 -291t-284 -82h-133l43 215h86q72 0 112 33t56 108l225 1127q43 209 148 290t284 81h133l-43 -213h-88z" />
    <glyph glyph-name="approxequal" unicode="&#x2248;" horiz-adv-x="1179" 
d="M434 743q-86 0 -178 -86l-133 172q172 158 348 158q107 0 205 -57q98 -58 184 -58t178 86l131 -170q-174 -160 -346 -159q-107 0 -205 57t-184 57zM735 182q-107 0 -205 58t-185 57q-87 0 -179 -86l-131 172q172 158 346 158q109 1 207 -57t168 -58q100 0 194 86
l131 -170q-174 -160 -346 -160z" />
    <glyph glyph-name="notequal" unicode="&#x2260;" horiz-adv-x="1171" 
d="M1176 1065l-140 -147h117l-49 -236h-283l-190 -195h436l-47 -235h-602l-262 -279l-136 131l140 148h-117l49 235h283l190 195h-438l49 236h604l260 278z" />
    <glyph glyph-name="lessequal" unicode="&#x2264;" 
d="M856 160l-49 -246l-723 408l49 245zM1077 1319l-55 -279l-541 -225l455 -237l-51 -256l-723 407l41 211z" />
    <glyph glyph-name="greaterequal" unicode="&#x2265;" 
d="M942 549l-51 -268l-873 -379l52 266zM1012 922l-43 -211l-873 -379l56 278l538 224l-454 237l53 258z" />
    <glyph glyph-name="dotmath" unicode="&#x22c5;" horiz-adv-x="555" 
d="M463 729l-57 -289h-289l57 289h289z" />
    <glyph glyph-name="lozenge" unicode="&#x25ca;" horiz-adv-x="1239" 
d="M891 698l-166 344l-299 -344l164 -348zM1171 666l-645 -719l-381 782l641 719z" />
    <glyph glyph-name="parenleft.case" horiz-adv-x="653" 
d="M94 140q0 68 21 173l174 873q37 176 97 261t204 204l143 -189q-94 -82 -129 -127q-47 -66 -65 -161l-174 -869q-16 -90 -17 -123q0 -88 98 -205l-192 -170q-94 115 -127 190t-33 143z" />
    <glyph glyph-name="parenright.case" horiz-adv-x="653" 
d="M641 1320q0 -68 -20 -175l-175 -873q-37 -176 -97 -261t-204 -204l-143 189q94 82 129 127q47 66 66 162l174 868q16 90 16 123q0 88 -98 205l192 170q94 -115 127 -189t33 -142z" />
    <glyph glyph-name="hyphen.case" horiz-adv-x="829" 
d="M752 846l-47 -236h-601l48 236h600z" />
    <glyph glyph-name="bracketleft.case" horiz-adv-x="735" 
d="M862 1610l-45 -228h-237l-263 -1306h258l-45 -228h-510l351 1762h491z" />
    <glyph glyph-name="bracketright.case" horiz-adv-x="735" 
d="M797 1610l-351 -1762h-491l45 226h240l262 1310h-258l45 226h508z" />
    <glyph glyph-name="braceleft.case" horiz-adv-x="890" 
d="M874 1382q-90 0 -122 -30t-50 -125l-59 -293q-33 -166 -176 -201q98 -47 98 -160q0 -29 -6 -59l-55 -278q-10 -55 -10 -91t26 -53q27 -16 90 -16h117l-45 -228h-197q-131 0 -193 73t-63 171q0 35 9 76l61 301q27 160 -109 162h-86l48 225h88q66 0 108 36t60 126l57 289
q33 163 116 233t232 70h201l-45 -228h-95z" />
    <glyph glyph-name="braceright.case" horiz-adv-x="890" 
d="M733 602q-65 0 -107 -36t-61 -126l-57 -288q-33 -162 -116 -233t-232 -71h-201l45 228h94q90 0 122 30t50 125l60 293q33 166 176 201q-98 47 -98 160q0 29 6 59l55 279q10 55 10 91t-26 52q-27 16 -91 16h-116l45 228h196q131 0 193 -73t63 -171q0 -35 -8 -76l-61 -301
q-27 -160 108 -162h86l-47 -225h-88z" />
    <glyph glyph-name="guillemotleft.case" horiz-adv-x="1222" 
d="M662 1235l-68 -328l-227 -196l149 -197l-55 -291l-387 510zM1204 1235l-67 -328l-228 -196l150 -197l-55 -291l-388 510z" />
    <glyph glyph-name="uni00AD.case" horiz-adv-x="829" 
d="M752 846l-47 -236h-601l48 236h600z" />
    <glyph glyph-name="guillemotright.case" horiz-adv-x="1222" 
d="M625 727l-588 -504l65 328l230 197l-152 198l58 289zM1167 727l-587 -504l65 328l227 197l-149 198l57 289z" />
    <glyph glyph-name="endash.case" 
d="M995 846l-47 -236h-860l45 236h862z" />
    <glyph glyph-name="emdash.case" horiz-adv-x="1996" 
d="M1923 850l-49 -244h-1770l48 244h1771z" />
    <glyph glyph-name="guilsinglleft.case" horiz-adv-x="681" 
d="M662 1235l-68 -328l-227 -196l149 -197l-55 -291l-387 510z" />
    <glyph glyph-name="guilsinglright.case" horiz-adv-x="681" 
d="M625 727l-588 -504l65 328l228 197l-150 198l58 289z" />
    <glyph glyph-name="grave.lc" horiz-adv-x="1052" 
d="M758 1231h-164l-152 342h263z" />
    <glyph glyph-name="dieresis.lc" horiz-adv-x="1052" 
d="M610 1485l-49 -250h-217l49 250h217zM1038 1485l-49 -250h-217l49 250h217z" />
    <glyph glyph-name="macron.lc" horiz-adv-x="1052" 
d="M1016 1436l-33 -168h-618l34 168h617z" />
    <glyph glyph-name="acute.lc" horiz-adv-x="1052" 
d="M1016 1573l-287 -342h-172l191 342h268z" />
    <glyph glyph-name="circumflex.lc" horiz-adv-x="1052" 
d="M1022 1231h-186l-123 192l-201 -192h-207l326 346h203z" />
    <glyph glyph-name="caron.lc" horiz-adv-x="1052" 
d="M1098 1577l-328 -346h-203l-190 346h190l121 -193l203 193h207z" />
    <glyph glyph-name="breve.lc" horiz-adv-x="1052" 
d="M389 1456q0 33 4 66h170q-6 -64 31 -98t96 -33q137 0 170 131h172q-61 -307 -358 -308q-127 0 -206 72t-79 170z" />
    <glyph glyph-name="dotaccent.lc" horiz-adv-x="1052" 
d="M825 1481l-45 -234h-221l49 234h217z" />
    <glyph glyph-name="ring.lc" horiz-adv-x="1052" 
d="M821 1455q0 48 -37 83t-84 35t-83 -35q-35 -35 -35 -83t36 -84t82 -36q47 0 84 36t37 84zM961 1456q0 -112 -76 -186q-75 -74 -183 -74t-184 75t-76 185t76 184t184 74t183 -74q76 -74 76 -184z" />
    <glyph glyph-name="tilde.lc" horiz-adv-x="1052" 
d="M546 1323q-56 0 -120 -63l-92 122q113 106 210 106q98 0 164 -39q66 -40 122 -40t122 61l92 -120q-113 -106 -227 -107q-83 0 -149 40t-122 40z" />
    <glyph glyph-name="hungarumlaut.lc" horiz-adv-x="1052" 
d="M827 1573l-284 -344h-172l188 344h268zM1233 1573l-287 -344h-172l191 344h268z" />
    <glyph glyph-name="diedot.lc" horiz-adv-x="1052" 
d="M610 1485l-49 -250h-217l49 250h217z" />
    <glyph glyph-name="zero.lf" 
d="M807 1102q0 72 -39 106t-94 35q-170 0 -211 -203l-119 -612q-10 -55 -10 -72q0 -72 39 -106t94 -35q170 0 211 203l121 612q8 45 8 72zM1059 1120q0 -49 -10 -100l-117 -594q-45 -230 -180 -334q-134 -104 -302 -104t-268 97t-100 253q0 49 10 100l119 594
q45 230 180 334t302 104t267 -97t99 -253z" />
    <glyph glyph-name="one.lf" horiz-adv-x="995" 
d="M924 1458l-291 -1458h-254l233 1167l-331 -239l57 293l332 237h254z" />
    <glyph glyph-name="two.lf" 
d="M1063 1108q0 -70 -22 -132q-22 -61 -41 -89q-19 -29 -29 -44t-34 -41t-31 -34t-33 -34l-496 -507h536l-47 -227h-860l47 227l631 641q68 70 95 117q28 47 28 114t-37 105t-102 39q-166 0 -211 -190h-256q37 207 164 312t314 105t285 -95t99 -267z" />
    <glyph glyph-name="three.lf" 
d="M1047 1124q0 -266 -224 -379q68 -39 99 -99t30 -161q0 -209 -139 -353t-337 -144t-309 94q-112 94 -112 252q0 35 6 74h250q-4 -33 -4 -46q0 -66 42 -106t129 -41q87 0 154 78q66 78 66 167q-1 175 -163 175h-39l43 221h41q90 0 151 74t61 155t-36 119q-37 38 -105 39
q-68 0 -126 -47t-79 -131h-256q48 203 176 304t306 101t276 -98t99 -248z" />
    <glyph glyph-name="four.lf" 
d="M997 1458l-671 -1005h288l56 270h241l-53 -270h133l-49 -240h-129l-43 -213h-242l41 213h-575l47 240l674 1005h282z" />
    <glyph glyph-name="five.lf" 
d="M668 975q142 0 226 -96q83 -96 83 -236q0 -74 -14 -151q-49 -256 -173 -380t-312 -124t-288 95q-98 95 -98 245q0 43 4 73h244q-2 -14 -2 -41q0 -145 135 -145q98 0 152 73q53 74 72 180t20 142q0 150 -130 150t-198 -121h-229l164 819h786l-45 -227h-559l-64 -324
q84 68 226 68z" />
    <glyph glyph-name="six.lf" 
d="M328 404q0 -189 170 -189q84 0 144 77q58 77 58 171q0 188 -174 188q-86 0 -142 -77t-56 -170zM629 856q145 0 235 -103t90 -274q0 -213 -131 -352t-337 -139t-309 116t-103 271q0 104 38 193t130 231l436 659h280l-415 -614q43 12 86 12z" />
    <glyph glyph-name="seven.lf" 
d="M1169 1458l-45 -227l-684 -1231h-280l682 1231h-369l-45 -223h-242l88 450h895z" />
    <glyph glyph-name="eight.lf" 
d="M457 1026q-1 -168 155 -168q80 0 138 68t59 147q1 170 -155 170q-80 0 -139 -68q-58 -69 -58 -149zM705 446q0 192 -173 191q-87 0 -152 -71t-65 -161t44 -140t131 -50q87 -1 151 69t64 162zM1065 1094q-1 -115 -63 -213t-160 -148q121 -95 121 -283q1 -188 -133 -325
t-367 -137q-176 0 -290 97t-114 284q-1 129 63 233t187 166q-106 94 -106 268t132 304q133 130 323 130t298 -102t109 -274z" />
    <glyph glyph-name="nine.lf" 
d="M815 1054q0 189 -173 189q-85 0 -142 -77q-58 -77 -58 -171t44 -141t130 -47t143 77q56 77 56 170zM1069 1083q0 -104 -38 -193t-130 -231l-438 -659h-279l416 614q-43 -12 -86 -12q-145 0 -235 104t-91 273q0 213 131 352t337 139t310 -116q103 -117 103 -271z" />
    <glyph glyph-name="zero.osf" 
d="M760 866q0 72 -39 107t-94 35q-172 0 -211 -203l-74 -377q-8 -45 -8 -72q0 -72 39 -106t94 -35q172 0 211 203l74 377q8 44 8 71zM1012 885q0 -49 -11 -101l-71 -358q-47 -230 -180 -334q-132 -104 -300 -104t-268 97t-100 253q0 49 10 100l72 359q47 231 181 335
t301 103q166 0 266 -97t100 -253z" />
    <glyph glyph-name="one.osf" horiz-adv-x="851" 
d="M780 1223l-243 -1223h-254l186 932l-332 -240l58 293l331 238h254z" />
    <glyph glyph-name="two.osf" horiz-adv-x="1077" 
d="M1018 915q0 -111 -71 -203t-242 -235l-306 -250h527l-47 -227h-883l45 227l526 418q115 92 155 143t40 119t-38 105t-101 37q-168 0 -209 -185h-254q39 208 167 310t313 102t282 -100q96 -101 96 -261z" />
    <glyph glyph-name="three.osf" horiz-adv-x="1042" 
d="M733 849q-1 159 -141 159q-66 0 -125 -47t-80 -132h-256q94 406 500 406q160 0 258 -98t98 -248q0 -266 -223 -379q131 -74 131 -272t-140 -342q-139 -146 -337 -146t-310 94t-112 252q0 35 6 76h250q-4 -33 -4 -45q0 -66 42 -107q42 -40 130 -40t154 76t65 168
q0 176 -162 175h-41l43 222h41q90 0 152 73q61 74 61 155z" />
    <glyph glyph-name="four.osf" horiz-adv-x="1155" 
d="M1038 307l-47 -237h-155l-64 -322h-244l64 322h-604l47 237l665 1006h281l-668 -1006h324l61 303h242l-59 -303h157z" />
    <glyph glyph-name="five.osf" horiz-adv-x="1073" 
d="M940 408q0 -72 -14 -152q-51 -258 -171 -381t-333 -123q-170 0 -268 95t-99 245q0 43 4 74h244q-2 -14 -2 -41q0 -145 135 -145q98 0 152 72q52 74 72 180t20 143q0 150 -131 149q-129 0 -197 -121h-229l164 820h788l-47 -228h-559l-63 -323q84 68 208 67q160 0 243 -96
t83 -235z" />
    <glyph glyph-name="six.osf" horiz-adv-x="1062" 
d="M313 431q0 -105 49 -161q48 -56 138 -57q90 1 158 79t69 184q0 106 -49 164q-49 56 -139 56t-158 -80t-68 -185zM635 899q137 0 241 -98t103 -307q0 -210 -134 -358q-135 -148 -353 -148t-324 124t-106 308t182 438l452 633h277l-445 -608q47 16 107 16z" />
    <glyph glyph-name="seven.osf" horiz-adv-x="1081" 
d="M1155 1223l-45 -228l-750 -1237h-278l749 1237h-409l-45 -223h-242l90 451h930z" />
    <glyph glyph-name="eight.osf" horiz-adv-x="1091" 
d="M475 1026q0 -168 156 -168q80 0 137 68t57 147q1 170 -155 170q-80 0 -138 -68q-57 -69 -57 -149zM723 447q0 190 -173 190q-87 0 -152 -71q-64 -71 -64 -161t43 -140t130 -50t151 71t65 161zM1081 1094q0 -115 -62 -213t-161 -148q121 -93 121 -283t-132 -326t-366 -136
q-176 0 -290 97t-113 284q0 129 63 233t187 166q-109 96 -109 269t133 303q134 130 324 130t298 -102t107 -274z" />
    <glyph glyph-name="nine.osf" horiz-adv-x="1062" 
d="M784 790q0 104 -49 161q-49 59 -138 59t-158 -79t-69 -183t51 -163q50 -59 140 -59t157 80q66 80 66 184zM1036 804q0 -184 -182 -439l-453 -633h-276l444 608q-47 -16 -108 -16q-137 0 -240 98q-102 98 -102 307t134 357t352 148q219 0 325 -123t106 -307z" />
    <glyph glyph-name="exclam.ss01" horiz-adv-x="675" 
d="M457 145q0 -63 -45 -107q-44 -44 -108 -44t-108 44t-44 107t44 109t107 47q63 0 109 -46q45 -47 45 -110zM713 1458l-258 -1003h-191l135 1003h314z" />
    <glyph glyph-name="period.ss01" horiz-adv-x="573" 
d="M385 165q0 -71 -49 -121t-121 -50t-121 50t-49 121t50 121t120 50t120 -50t50 -121z" />
    <glyph glyph-name="colon.ss01" horiz-adv-x="620" 
d="M434 165q0 -71 -49 -121t-120 -50t-120 49t-49 121t49 122t119 50t120 -50t50 -121zM543 707q0 -72 -50 -121t-120 -49t-120 49t-50 121q0 73 50 121t120 48t120 -48q50 -49 50 -121z" />
    <glyph glyph-name="semicolon.ss01" horiz-adv-x="620" 
d="M541 707q0 -72 -49 -121t-121 -49t-121 49t-49 121q0 73 49 121t121 48t121 -48q49 -49 49 -121zM436 291l-82 -404l-321 -225l125 629h278z" />
    <glyph glyph-name="question.ss01" horiz-adv-x="1017" 
d="M633 145q0 -63 -45 -107q-44 -44 -108 -44t-108 44t-44 107t44 109t107 47q63 0 109 -46q45 -47 45 -110zM721 1470q139 0 239 -89t101 -251q0 -162 -152 -325l-182 -203q-45 -49 -57 -104l-11 -43h-253l14 63q27 125 110 215l183 193q92 100 92 192q0 53 -33 89
q-32 36 -100 36t-118 -45t-67 -125h-254q35 201 165 299t323 98z" />
    <glyph glyph-name="at.ss01" horiz-adv-x="1957" 
d="M1153 668q0 60 -34 93q-33 34 -95 34q-157 0 -207 -265q-14 -76 -14 -136t35 -92q36 -34 98 -34q151 0 203 264q14 76 14 136zM1882 690q0 -252 -174 -433t-442 -181h-205l18 96q-102 -109 -234 -109t-209 76t-77 199q0 66 28 205t61 225q34 86 106 147q94 84 244 84
t216 -108l19 96h231l-151 -760q176 11 277 145t102 318q0 258 -168 413t-447 154q-313 0 -529 -213q-216 -212 -216 -538t203 -522t552 -197h150l-33 -166h-151q-414 0 -668 252t-254 644t272 655t674 264q361 0 583 -208t222 -538z" />
    <glyph glyph-name="C.ss01" horiz-adv-x="1103" 
d="M764 1233q-114 0 -195 -84q-47 -49 -77 -134t-70 -293q-41 -208 -41 -297t51 -144t143 -56q127 0 230 111l156 -191q-165 -157 -387 -157t-344 120t-121 295q0 92 48 340t89 362t127 200q167 165 407 165t375 -178l-203 -170q-74 111 -188 111z" />
    <glyph glyph-name="G.ss01" horiz-adv-x="1247" 
d="M571 -12q-223 0 -343 121t-119 292q0 113 47 355t88 353q41 110 127 196q167 165 417 165t396 -198l-207 -170q-86 131 -205 131t-201 -82q-51 -51 -81 -138t-70 -285t-39 -303q0 -105 57 -153q58 -48 150 -47q92 0 177 76t112 217l12 64h-254l43 225h522l-41 -209
q-31 -162 -75 -263t-126 -183q-164 -164 -387 -164z" />
    <glyph glyph-name="a.ss01" horiz-adv-x="1097" 
d="M727 707q0 61 -32 103q-33 42 -107 42t-134 -60t-90 -214t-30 -216t32 -105q32 -42 106 -42q74 1 136 61q60 60 90 215t29 216zM552 1079q165 0 247 -123l22 111h244l-211 -1067h-246l23 106q-100 -118 -257 -118t-231 87q-73 87 -73 195t32 274q32 167 73 270
q103 265 377 265z" />
    <glyph glyph-name="i.ss01" horiz-adv-x="536" 
d="M590 1366q0 -66 -47 -113t-113 -47t-113 47t-47 113t47 113t113 47t113 -47t47 -113zM504 1067l-213 -1067h-254l213 1067h254z" />
    <glyph glyph-name="j.ss01" horiz-adv-x="536" 
d="M590 1366q0 -66 -47 -113t-113 -47t-113 47t-47 113t47 113t113 47t113 -47t47 -113zM-72 -399h-157l43 215h92q94 0 114 108l230 1143h254l-232 -1165q-28 -141 -116 -221t-228 -80z" />
    <glyph glyph-name="exclamdown.ss01" horiz-adv-x="675" 
d="M528 922q0 -62 -44 -108t-107 -46t-108 45q-44 45 -44 109t44 107q43 44 107 44t108 -44t44 -107zM416 612l-135 -1003h-314l258 1003h191z" />
    <glyph glyph-name="dieresis.ss01" horiz-adv-x="972" 
d="M606 1357q0 -54 -39 -93t-93 -39t-93 39t-39 93t39 93t93 39t93 -39t39 -93zM916 1489q54 0 94 -39t39 -93q0 -54 -39 -93q-40 -39 -94 -39t-93 39t-39 93t39 93t93 39z" />
    <glyph glyph-name="ordfeminine.ss01" horiz-adv-x="909" 
d="M700 1169q0 115 -104 115q-66 0 -114 -47t-79 -205q-14 -76 -14 -135q0 -115 105 -115q144 0 184 216q22 120 22 171zM422 596q-121 0 -184 69t-64 173q0 63 27 194q53 272 139 355t220 83t200 -98l16 88h197l-170 -854h-197l17 84q-80 -94 -201 -94z" />
    <glyph glyph-name="periodcentered.ss01" horiz-adv-x="573" 
d="M469 584q0 -72 -50 -122t-120 -50t-120 50t-50 122t50 121t120 49t120 -49t50 -121z" />
    <glyph glyph-name="cedilla.ss01" horiz-adv-x="1024" 
d="M539 -252q0 -92 -75 -154t-181 -61h-19l27 129q43 -2 69 22t25 60q0 61 -66 68l27 129q80 -5 136 -53t57 -140z" />
    <glyph glyph-name="questiondown.ss01" horiz-adv-x="1017" 
d="M698 922q0 -62 -45 -108t-108 -46t-108 45q-44 45 -44 109t44 107q43 44 107 44t109 -44t45 -107zM303 -403q-139 0 -238 89q-99 90 -99 252t151 326l182 201q45 49 57 104l9 45h253l-14 -65q-27 -125 -110 -215l-183 -193q-90 -98 -90 -192q0 -53 33 -89t88 -36
q162 0 195 170h254q-35 -201 -165 -299t-323 -98z" />
    <glyph glyph-name="Adieresis.ss01" horiz-adv-x="1243" 
d="M489 1721q0 53 39 93q40 40 94 40t93 -40q39 -39 39 -93t-39 -93t-93 -39t-94 39q-39 39 -39 93zM932 1721q0 53 39 93t93 40t93 -40q39 -39 39 -93t-39 -93t-93 -39t-93 39t-39 93zM805 487l-70 562l-293 -562h363zM1130 0h-274l-31 266h-493l-137 -266h-289l794 1458
h215z" />
    <glyph glyph-name="Ccedilla.ss01" horiz-adv-x="1103" 
d="M616 -252q0 -92 -74 -154q-75 -61 -182 -61h-18l27 129q43 -2 69 22t25 60q0 61 -66 68l27 129q80 -5 136 -53t56 -140zM764 1233q-114 0 -195 -84q-47 -49 -77 -134t-70 -293q-41 -208 -41 -297t51 -144t143 -56q127 0 230 111l156 -191q-165 -157 -387 -157t-344 120
t-121 295q0 92 48 340t89 362t127 200q167 165 407 165t375 -178l-203 -170q-74 111 -188 111z" />
    <glyph glyph-name="Edieresis.ss01" horiz-adv-x="1183" 
d="M467 1721q0 53 39 93t93 40t93 -40q39 -39 39 -93t-39 -93t-93 -39t-93 39t-39 93zM1174 1721q0 -54 -39 -93t-93 -39t-94 39q-39 39 -39 93q0 53 39 93t93 40t94 -39q39 -40 39 -94zM1260 1458l-48 -237h-639l-73 -367h551l-47 -238h-551l-76 -378h651l-47 -238h-924
l293 1458h910z" />
    <glyph glyph-name="Idieresis.ss01" horiz-adv-x="593" 
d="M170 1721q0 53 39 93t93 40t93 -40q39 -39 39 -93t-39 -93t-93 -39t-93 39t-39 93zM877 1721q0 -54 -39 -93q-40 -39 -94 -39t-93 39t-39 93q0 53 39 93t93 40t94 -39q39 -40 39 -94zM621 1458l-293 -1458h-271l293 1458h271z" />
    <glyph glyph-name="Odieresis.ss01" horiz-adv-x="1251" 
d="M489 1721q0 53 39 93q40 40 94 40t93 -40q39 -39 39 -93t-39 -93t-93 -39t-94 39q-39 39 -39 93zM932 1721q0 53 39 93t93 40t93 -40q39 -39 39 -93t-39 -93t-93 -39t-93 39t-39 93zM948 1033q0 95 -53 147t-131 53q-117 0 -199 -88q-43 -45 -73 -131t-70 -295
q-41 -209 -41 -299t54 -142t132 -53q117 0 199 88q43 45 73 131q29 86 69 290t40 299zM1223 1057q0 -88 -46 -329q-45 -240 -89 -362t-129 -207t-195 -128t-217 -43q-201 0 -320 118t-118 295q0 88 46 329t89 363t128 207q86 86 194 128t216 42q201 0 321 -118t120 -295z
" />
    <glyph glyph-name="Udieresis.ss01" horiz-adv-x="1300" 
d="M786 1721q0 -54 -38 -93t-94 -39q-54 0 -93 39t-39 93q0 53 39 93t93 40t94 -39q38 -40 38 -94zM965 1721q0 53 39 93t93 40t93 -40q39 -39 39 -93t-39 -93t-93 -39t-93 39t-39 93zM584 -12q-202 0 -330 114q-127 114 -127 301q0 53 14 125l187 930h270l-190 -946
q-10 -61 -11 -90q0 -82 48 -138t155 -56q106 0 184 76q78 77 107 222l186 932h271l-193 -958q-51 -256 -210 -384t-361 -128z" />
    <glyph glyph-name="agrave.ss01" horiz-adv-x="1097" 
d="M750 1231h-164l-152 342h262zM727 707q0 61 -32 103q-33 42 -107 42t-134 -60t-90 -214t-30 -216t32 -105q32 -42 106 -42q74 1 136 61q60 60 90 215t29 216zM552 1079q165 0 247 -123l22 111h244l-211 -1067h-246l23 106q-100 -118 -257 -118t-231 87q-73 87 -73 195
t32 274q32 167 73 270q103 265 377 265z" />
    <glyph glyph-name="aacute.ss01" horiz-adv-x="1097" 
d="M1008 1573l-287 -342h-172l190 342h269zM727 707q0 61 -32 103q-33 42 -107 42t-134 -60t-90 -214t-30 -216t32 -105q32 -42 106 -42q74 1 136 61q60 60 90 215t29 216zM552 1079q165 0 247 -123l22 111h244l-211 -1067h-246l23 106q-100 -118 -257 -118t-231 87
q-73 87 -73 195t32 274q32 167 73 270q103 265 377 265z" />
    <glyph glyph-name="acircumflex.ss01" horiz-adv-x="1097" 
d="M1014 1231h-187l-122 192l-201 -192h-207l326 346h202zM727 707q0 61 -32 103q-33 42 -107 42t-134 -60t-90 -214t-30 -216t32 -105q32 -42 106 -42q74 1 136 61q60 60 90 215t29 216zM552 1079q165 0 247 -123l22 111h244l-211 -1067h-246l23 106q-100 -118 -257 -118
t-231 87q-73 87 -73 195t32 274q32 167 73 270q103 265 377 265z" />
    <glyph glyph-name="atilde.ss01" horiz-adv-x="1097" 
d="M538 1323q-56 0 -120 -63l-92 122q113 106 210 106q98 0 164 -39q66 -40 122 -40t122 61l92 -120q-113 -106 -227 -107q-83 0 -149 40t-122 40zM727 707q0 61 -32 103q-33 42 -107 42t-134 -60t-90 -214t-30 -216t32 -105q32 -42 106 -42q74 1 136 61q60 60 90 215
t29 216zM552 1079q165 0 247 -123l22 111h244l-211 -1067h-246l23 106q-100 -118 -257 -118t-231 87q-73 87 -73 195t32 274q32 167 73 270q103 265 377 265z" />
    <glyph glyph-name="adieresis.ss01" horiz-adv-x="1097" 
d="M598 1357q0 -54 -39 -93t-93 -39t-93 39t-39 93t39 93t93 39t93 -39t39 -93zM1040 1357q0 -54 -39 -93t-93 -39t-93 39t-39 93t39 93t93 39t93 -39t39 -93zM727 707q0 61 -32 103q-33 42 -107 42t-134 -60t-90 -214t-30 -216t32 -105q32 -42 106 -42q74 1 136 61
q60 60 90 215t29 216zM552 1079q165 0 247 -123l22 111h244l-211 -1067h-246l23 106q-100 -118 -257 -118t-231 87q-73 87 -73 195t32 274q32 167 73 270q103 265 377 265z" />
    <glyph glyph-name="aring.ss01" horiz-adv-x="1097" 
d="M817 1455q0 48 -37 83t-84 35t-83 -35q-35 -35 -35 -83t36 -84t82 -36q47 0 84 36t37 84zM956 1456q0 -112 -76 -186t-182 -74q-108 0 -184 75t-76 185t76 184t184 74t182 -74q76 -74 76 -184zM727 707q0 61 -32 103q-33 42 -107 42t-134 -60t-90 -214t-30 -216t32 -105
q32 -42 106 -42q74 1 136 61q60 60 90 215t29 216zM552 1079q165 0 247 -123l22 111h244l-211 -1067h-246l23 106q-100 -118 -257 -118t-231 87q-73 87 -73 195t32 274q32 167 73 270q103 265 377 265z" />
    <glyph glyph-name="ae.ss01" horiz-adv-x="1699" 
d="M1382 698q0 82 -42 127t-111 45q-184 0 -252 -243h397q8 44 8 71zM739 702q0 64 -37 107q-38 43 -112 43t-136 -62t-102 -255q-18 -96 -18 -164t36 -112t112 -44q76 -1 140 67q62 68 97 253q20 103 20 167zM1624 698q0 -92 -33 -241h-647q-6 -37 -6 -74q0 -82 48 -131
t140 -49q139 0 254 108l131 -168q-164 -156 -409 -155q-193 0 -279 137l-24 -125h-172l24 115q-102 -127 -282 -127q-141 0 -221 88q-79 88 -78 227q0 90 34 256q61 303 172 416q111 104 282 104t247 -129l22 117h172l-22 -119q94 131 283 131q132 -1 248 -97t116 -284z" />
    <glyph glyph-name="ccedilla.ss01" horiz-adv-x="937" 
d="M539 -252q0 -92 -75 -154t-181 -61h-19l27 129q43 -2 69 22t25 60q0 61 -66 68l27 129q80 -5 136 -53t57 -140zM608 852q-84 0 -158 -77t-104 -240q-14 -82 -14 -153t39 -119t123 -48t176 90l141 -182q-145 -135 -352 -135q-162 0 -273 100t-110 281q0 78 22 200
q22 121 81 233q58 112 134 169q147 110 333 109q187 -1 302 -148l-190 -168q-66 88 -150 88z" />
    <glyph glyph-name="edieresis.ss01" horiz-adv-x="1071" 
d="M484 1489q54 0 93 -39t39 -93t-38 -93t-94 -39q-54 0 -93 39t-39 93t39 93t93 39zM1059 1357q0 -54 -39 -93t-93 -39t-93 39t-39 93t39 93t93 39t93 -39t39 -93zM756 698q0 82 -41 127t-111 45q-178 0 -246 -243h392q6 32 6 71zM997 698q0 -92 -32 -241h-639
q-8 -57 -9 -76q1 -82 47 -130t136 -48q139 0 254 108l133 -168q-164 -156 -416 -155q-163 0 -279 91t-116 280t57 349t184 265q127 106 300 106t277 -103q103 -104 103 -278z" />
    <glyph glyph-name="idieresis.ss01" horiz-adv-x="536" 
d="M338 1357q0 -54 -39 -93t-93 -39t-93 39t-39 93t39 93t93 39t93 -39t39 -93zM780 1357q0 -54 -39 -93t-93 -39t-93 39t-39 93t39 93t93 39t93 -39t39 -93zM504 1067l-213 -1067h-254l213 1067h254z" />
    <glyph glyph-name="odieresis.ss01" horiz-adv-x="1052" 
d="M606 1357q0 -54 -39 -93t-93 -39t-93 39t-39 93t39 93t93 39t93 -39t39 -93zM916 1489q54 0 94 -39t39 -93q0 -54 -39 -93q-40 -39 -94 -39t-93 39t-39 93t39 93t93 39zM725 712q0 62 -36 101q-37 39 -107 39t-123 -53q-70 -66 -109 -264q-22 -117 -22 -179t37 -102
q37 -39 107 -39t122 53q68 66 108 267q23 115 23 177zM977 727q0 -70 -26 -212q-96 -527 -513 -527q-141 0 -252 88t-110 266q0 57 22 193q31 162 75 257t116 164q127 123 327 123q141 0 251 -87t110 -265z" />
    <glyph glyph-name="divide.ss01" 
d="M637 170q0 -72 -50 -122t-120 -50t-119 50t-49 122t49 121t119 49t120 -49t50 -121zM1004 705l-48 -240h-878l47 240h879zM786 1000q0 -70 -49 -120t-121 -50t-120 50t-50 120q0 70 50 121q50 50 120 50t120 -50t50 -121z" />
    <glyph glyph-name="udieresis.ss01" horiz-adv-x="1114" 
d="M633 1357q0 -54 -39 -93t-93 -39t-93 39t-39 93t39 93t93 39t93 -39t39 -93zM1075 1357q0 -54 -39 -93t-93 -39t-93 39t-39 93t39 93t93 39t93 -39t39 -93zM90 285q0 47 12 116l134 666h253l-129 -649q-8 -45 -8 -70q0 -66 37 -100t99 -33q62 0 123 46q62 46 85 159
l129 647h254l-211 -1067h-243l18 102q-111 -115 -281 -114q-106 0 -189 74t-83 223z" />
    <glyph glyph-name="ydieresis.ss01" horiz-adv-x="950" 
d="M549 1357q0 -54 -39 -93t-93 -39t-93 39t-39 93t39 93t93 39t93 -39t39 -93zM991 1357q0 -54 -39 -93t-93 -39t-93 39t-39 93t39 93t93 39t93 -39t39 -93zM47 -391h-98l47 229h57q53 0 84 26t62 85l67 127l-151 991h252l77 -688l342 688h269l-666 -1239q-41 -78 -88 -125
q-94 -94 -254 -94z" />
    <glyph glyph-name="Ydieresis.ss01" horiz-adv-x="1126" 
d="M707 1721q0 -54 -39 -93q-40 -39 -94 -39t-93 39t-39 93q0 53 39 93t93 40t94 -39q39 -40 39 -94zM885 1721q0 53 39 93t93 40t93 -40q39 -39 39 -93t-39 -93t-93 -39t-93 39t-39 93zM1300 1458l-585 -870l-119 -588h-270l120 598l-264 860h287l156 -604l376 604h299z
" />
    <glyph glyph-name="dotaccent.ss01" horiz-adv-x="1040" 
d="M815 1369q0 -54 -38 -93t-93 -39t-93 39t-38 93t38 93t93 39t93 -39t38 -93z" />
    <glyph glyph-name="ogonek.ss01" horiz-adv-x="1007" 
d="M475 -266q-1 -30 17 -51q18 -20 49 -23l-27 -129q-80 4 -136 53t-56 140t73 153q74 61 183 62h18l-27 -129q-43 0 -69 -23t-25 -53z" />
    <glyph glyph-name="ellipsis.ss01" horiz-adv-x="1646" 
d="M924 164q0 -70 -50 -120t-122 -50q-70 0 -119 49t-49 121t49 122t120 50t121 -51t50 -121zM385 165q0 -71 -49 -121t-121 -50t-121 50t-49 121t50 121t120 50t120 -50t50 -121zM1460 165q0 -71 -50 -121t-120 -50t-120 50t-50 121t50 121t120 50t120 -50t50 -121z" />
    <glyph glyph-name="Euro.ss01" horiz-adv-x="1200" 
d="M862 1233q-113 0 -192 -80q-57 -57 -92 -184h309l-31 -160h-319l-31 -154h321l-30 -159h-314q-6 -43 -6 -78q0 -86 51 -139t144 -54q125 0 229 111l156 -191q-158 -157 -383 -157t-347 120t-122 295q0 18 8 93h-139l28 159h134l30 154h-135l31 160h139q55 223 168 336
q167 165 407 165t375 -178l-202 -170q-74 111 -187 111z" />
    <glyph glyph-name="logicaland.ss01" horiz-adv-x="573" 
d="M469 584q0 -72 -50 -122t-120 -50t-120 50t-50 122t50 121t120 49t120 -49t50 -121z" />
    <glyph glyph-name="dotmath.ss01" horiz-adv-x="573" 
d="M469 584q0 -72 -50 -122t-120 -50t-120 50t-50 122t50 121t120 49t120 -49t50 -121z" />
    <glyph glyph-name="fi.ss01" horiz-adv-x="1179" 
d="M1233 1366q0 -66 -47 -113t-113 -47q-67 0 -113 47t-47 113t47 113t114 47t112 -47q47 -47 47 -113zM1141 1038l-207 -1038h-254l207 1038h254zM670 1260q-96 0 -117 -105l-25 -117h189l-39 -194h-189l-167 -844h-254l168 844h-105l39 194h104l31 144q61 293 348 293h150
l-43 -215h-90z" />
    <glyph glyph-name="diedotlc.ss01" horiz-adv-x="1052" 
d="M608 1361q0 -54 -39 -93t-93 -39t-93 39t-39 93t39 93t93 39t93 -39t39 -93z" />
    <glyph glyph-name="diedotuc.ss01" horiz-adv-x="1251" 
d="M758 1723q0 -54 -39 -93t-93 -39t-94 39q-38 39 -38 93t38 94q40 39 94 39t93 -40q39 -39 39 -93z" />
    <glyph glyph-name="dieresislc.ss01" horiz-adv-x="1052" 
d="M606 1357q0 -54 -39 -93t-93 -39t-93 39t-39 93t39 93t93 39t93 -39t39 -93zM916 1489q54 0 94 -39t39 -93q0 -54 -39 -93q-40 -39 -94 -39t-93 39t-39 93t39 93t93 39z" />
    <glyph glyph-name="dieresisuc.ss01" horiz-adv-x="1251" 
d="M489 1721q0 53 39 93q40 40 94 40t93 -40q39 -39 39 -93t-39 -93t-93 -39t-94 39q-39 39 -39 93zM932 1721q0 53 39 93t93 40t93 -40q39 -39 39 -93t-39 -93t-93 -39t-93 39t-39 93z" />
    <glyph glyph-name="dotaccentlc.ss01" horiz-adv-x="1040" 
d="M815 1369q0 -54 -38 -93t-93 -39t-93 39t-38 93t38 93t93 39t93 -39t38 -93z" />
    <glyph glyph-name="dotaccentuc.ss01" horiz-adv-x="972" 
d="M971 1732q0 -54 -39 -94t-93 -39q-54 0 -94 39q-39 40 -39 94t39 93t93 39t94 -39q39 -39 39 -93z" />
    <glyph glyph-name="zero.tosf" 
d="M741 866q0 72 -39 107t-94 35q-172 0 -211 -203l-73 -377q-8 -45 -9 -72q0 -72 39 -106t95 -35q172 0 210 203l74 377q8 44 8 71zM993 885q0 -49 -10 -101l-72 -358q-47 -230 -180 -334t-300 -104t-267 97t-101 253q0 49 11 100l71 359q47 231 181 335t302 103
q167 0 266 -97t99 -253z" />
    <glyph glyph-name="one.tosf" 
d="M850 1223l-244 -1223h-254l187 932l-332 -240l57 293l332 238h254z" />
    <glyph glyph-name="two.tosf" 
d="M1038 915q0 -111 -70 -203t-243 -235l-305 -250h526l-47 -227h-883l45 227l527 418q114 92 154 143t40 119t-38 105t-101 37q-168 0 -209 -185h-254q39 208 167 310q127 102 313 102t282 -100t96 -261z" />
    <glyph glyph-name="three.tosf" 
d="M770 849q0 159 -140 159q-66 0 -126 -47q-59 -47 -80 -132h-256q94 406 500 406q160 0 258 -98t98 -248q0 -266 -223 -379q131 -74 131 -272t-140 -342q-140 -146 -338 -146t-310 94t-111 252q0 35 6 76h250q-4 -33 -4 -45q0 -66 42 -107q42 -40 130 -40q87 0 153 76
t66 168q0 176 -162 175h-41l43 222h41q90 0 152 73q61 74 61 155z" />
    <glyph glyph-name="four.tosf" 
d="M1053 307l-47 -237h-156l-64 -322h-243l63 322h-604l47 237l666 1006h280l-667 -1006h323l62 303h241l-59 -303h158z" />
    <glyph glyph-name="five.tosf" 
d="M903 408q0 -72 -14 -152q-51 -258 -171 -381t-333 -123q-170 0 -268 95t-99 245q0 43 5 74h243q-2 -14 -2 -41q0 -145 135 -145q98 0 152 72q53 74 73 180t19 143q0 150 -131 149q-129 0 -197 -121h-229l164 820h788l-47 -228h-559l-63 -323q84 68 209 67q160 0 242 -96
t83 -235z" />
    <glyph glyph-name="six.tosf" 
d="M509 213q89 1 157 79t69 184q0 106 -49 164q-49 56 -139 56t-158 -80q-67 -80 -67 -185t49 -161t138 -57zM643 899q137 0 241 -98t103 -307q0 -210 -134 -358t-352 -148t-325 124q-106 124 -106 308t182 438l453 633h276l-444 -608q47 16 106 16z" />
    <glyph glyph-name="seven.tosf" 
d="M1065 1223l-45 -228l-750 -1237h-278l749 1237h-409l-45 -223h-242l90 451h930z" />
    <glyph glyph-name="eight.tosf" 
d="M424 1026q0 -168 156 -168q80 0 136 68q58 68 58 147q0 170 -156 170q-80 0 -137 -68q-57 -69 -57 -149zM672 447q0 190 -173 190q-87 0 -152 -71t-65 -161t44 -140t130 -50t151 71t65 161zM1030 1094q0 -115 -62 -213t-161 -148q121 -93 121 -283t-132 -326t-366 -136
q-176 0 -290 97t-113 284q0 129 63 233t186 166q-109 96 -108 252q0 190 133 320t323 130t298 -102t108 -274z" />
    <glyph glyph-name="nine.tosf" 
d="M735 790q0 104 -49 161q-49 59 -138 59t-158 -79q-68 -79 -68 -183t50 -163t140 -59t157 80q66 80 66 184zM987 804q0 -184 -182 -439l-453 -633h-276l444 608q-47 -16 -108 -16q-137 0 -240 98q-102 98 -102 307t134 357t352 148t324 -123t107 -307z" />
    <glyph glyph-name="grave.uc" horiz-adv-x="1177" 
d="M911 1593h-161l-152 344h260z" />
    <glyph glyph-name="dieresis.uc" horiz-adv-x="1177" 
d="M764 1847l-49 -250h-217l49 250h217zM1192 1847l-49 -250h-217l49 250h217z" />
    <glyph glyph-name="macron.uc" horiz-adv-x="987" 
d="M1165 1790l-32 -168h-619l35 168h616z" />
    <glyph glyph-name="acute.uc" horiz-adv-x="1177" 
d="M1169 1937l-286 -344h-172l190 344h268z" />
    <glyph glyph-name="circumflex.uc" horiz-adv-x="1177" 
d="M1178 1593h-189l-121 193l-202 -193h-207l325 349h205z" />
    <glyph glyph-name="caron.uc" horiz-adv-x="1052" 
d="M1251 1942l-325 -349h-205l-189 349h189l121 -195l202 195h207z" />
    <glyph glyph-name="breve.uc" horiz-adv-x="987" 
d="M829 1577q-129 0 -207 72t-79 172q0 41 6 65h168q-4 -66 32 -100t97 -33q137 0 168 133h174q-61 -309 -359 -309z" />
    <glyph glyph-name="dotaccent.uc" horiz-adv-x="987" 
d="M983 1843l-47 -233h-219l47 233h219z" />
    <glyph glyph-name="ring.uc" horiz-adv-x="972" 
d="M971 1798q0 49 -36 84t-83 35t-83 -35t-36 -84t36 -84t83 -35t83 35t36 84zM1110 1798q0 -112 -76 -186t-184 -74t-182 75q-76 75 -76 185t76 186q76 74 183 74t183 -74t76 -186z" />
    <glyph glyph-name="tilde.uc" horiz-adv-x="1177" 
d="M975 1618q-83 0 -149 40t-121 40t-123 -64l-93 123q117 107 213 107t163 -40t123 -40t122 61l92 -121q-113 -106 -227 -106z" />
    <glyph glyph-name="hungarumlaut.uc" horiz-adv-x="987" 
d="M983 1935l-287 -342h-172l191 342h268zM1386 1935l-286 -342h-172l190 342h268z" />
    <glyph glyph-name="diedot.uc" horiz-adv-x="1251" 
d="M764 1847l-49 -250h-215l49 250h215z" />
    <glyph glyph-name="Tcedilla" horiz-adv-x="1114" 
d="M561 -117l-141 -295h-240l191 295h190zM1239 1458l-47 -239h-358l-244 -1219h-271l244 1219h-366l47 239h995z" />
    <glyph glyph-name="caroncomma" horiz-adv-x="1040" 
d="M1571 1516l-187 -338h-186l137 338h236z" />
    <glyph glyph-name="commaaccent" horiz-adv-x="555" 
d="M526 -117l-141 -295h-240l191 295h190z" />
    <glyph glyph-name="commaturn" horiz-adv-x="708" 
d="M1016 1573l-287 -342h-172l191 342h268z" />
    <glyph glyph-name="tcedilla" horiz-adv-x="690" 
d="M352 -117l-141 -295h-240l191 295h190zM375 279q0 -66 82 -66h92l-43 -213h-131q-113 0 -186 62t-72 169q0 43 8 88l104 523h-108l39 196h108l64 316h254l-64 -316h176l-39 -196h-176l-104 -525q-4 -16 -4 -38z" />
    <glyph glyph-name="Tcedilla.ss01" horiz-adv-x="1114" 
d="M528 -252q0 -92 -74 -154q-75 -61 -182 -61h-18l27 129q43 -2 69 22t25 60q0 61 -66 68l27 129q80 -5 136 -53t56 -140zM1239 1458l-47 -239h-358l-244 -1219h-271l244 1219h-366l47 239h995z" />
    <glyph glyph-name="tcedilla.ss01" horiz-adv-x="690" 
d="M340 -252q0 -92 -75 -154t-181 -61h-18l26 129q43 -2 69 22t25 60q0 61 -65 68l26 129q81 -5 137 -53t56 -140zM375 279q0 -66 82 -66h92l-43 -213h-131q-113 0 -186 62t-72 169q0 43 8 88l104 523h-108l39 196h108l64 316h254l-64 -316h176l-39 -196h-176l-104 -525
q-4 -16 -4 -38z" />
    <glyph glyph-name="commaaccent.ss01" horiz-adv-x="1024" 
d="M539 -252q0 -92 -75 -154t-181 -61h-19l27 129q43 -2 69 22t25 60q0 61 -66 68l27 129q80 -5 136 -53t57 -140z" />
    <glyph glyph-name="caroncomma.ss01" horiz-adv-x="528" 
d="M1507 1530l-49 -248l-258 -174l86 422h221z" />
    <glyph glyph-name="commaturn.ss01" horiz-adv-x="1247" 
d="M530 1353q0 91 75 153t181 63h19l-27 -129q-42 2 -68 -22t-26 -60q0 -61 66 -68l-27 -129q-81 4 -137 52t-56 140z" />
    </font>
</defs>
</svg>
