<?xml version="1.0" encoding="utf-8"?>
<!-- Generator: Adobe Illustrator 16.0.4, SVG Export Plug-In . SVG Version: 6.00 Build 0)  -->
<!DOCTYPE svg PUBLIC "-//W3C//DTD SVG 1.1//EN" "http://www.w3.org/Graphics/SVG/1.1/DTD/svg11.dtd">
<svg version="1.1" id="steam" xmlns="http://www.w3.org/2000/svg" xmlns:xlink="http://www.w3.org/1999/xlink" x="0px" y="0px"
	 width="128px" height="128px" viewBox="0 0 128 128" enable-background="new 0 0 128 128" xml:space="preserve">
<path fill="#FFFFFF" d="M63.959,0C30.042,0,2.289,26.386,0.097,59.749c0.009,0.016,0.018,0.031,0.027,0.047c0-0.001,0-0.009,0-0.009
	l34.389,14.156c0.935-0.615,1.934-1.148,2.997-1.582c2.414-0.994,4.96-1.439,7.497-1.324l15.66-22.75
	c-0.005-0.101-0.005-0.208-0.005-0.316c0-13.426,10.903-24.348,24.31-24.349c13.411,0,24.311,10.923,24.311,24.349
	c0,13.425-10.901,24.357-24.311,24.357c-0.182,0-0.369-0.006-0.551-0.01L62.014,88.332c0.067,2.471-0.389,4.951-1.367,7.311
	c-3.758,9.037-14.173,13.34-23.206,9.564c-5.52-2.301-9.262-7.086-10.483-12.541L2.729,82.669C10.719,108.908,35.108,128,63.959,128
	c35.346,0,64-28.654,64-64C127.959,28.654,99.305,0,63.959,0z"/>
<path fill="#FFFFFF" d="M56.905,94.072c-2.908,6.982-10.933,10.295-17.907,7.389c-3.217-1.34-5.646-3.797-7.048-6.725l7.913,3.279
	c5.145,2.143,11.045-0.295,13.184-5.438c2.145-5.147-0.289-11.06-5.43-13.201l-8.18-3.392c3.156-1.196,6.744-1.239,10.098,0.154
	c3.379,1.405,6.002,4.055,7.393,7.438C58.316,86.963,58.312,90.699,56.905,94.072"/>
<path fill="#FFFFFF" d="M84.973,31.749c-8.926,0-16.195,7.282-16.195,16.222c0,8.948,7.268,16.227,16.195,16.227
	c8.932,0,16.199-7.279,16.199-16.227C101.172,39.03,93.904,31.749,84.973,31.749z M85,60.133c-6.714,0-12.164-5.455-12.164-12.186
	c0-6.731,5.45-12.191,12.164-12.191c6.718,0,12.168,5.459,12.168,12.191C97.168,54.679,91.718,60.133,85,60.133z"/>
</svg>
