<?xml version="1.0" encoding="utf-8"?>
<!-- Generator: Adobe Illustrator 16.0.4, SVG Export Plug-In . SVG Version: 6.00 Build 0)  -->
<!DOCTYPE svg PUBLIC "-//W3C//DTD SVG 1.1//EN" "http://www.w3.org/Graphics/SVG/1.1/DTD/svg11.dtd">
<svg version="1.1" id="twitter_1_" xmlns="http://www.w3.org/2000/svg" xmlns:xlink="http://www.w3.org/1999/xlink" x="0px" y="0px"
	 width="128px" height="128px" viewBox="0 0 128 128" enable-background="new 0 0 128 128" xml:space="preserve">
<path id="twitter" fill="#FFFFFF" d="M40.477,117.018c48.098,0,74.407-39.85,74.407-74.407c0-1.132,0-2.259-0.077-3.38
	c5.118-3.702,9.537-8.285,13.049-13.537c-4.772,2.115-9.838,3.502-15.021,4.115c5.46-3.268,9.544-8.409,11.497-14.464
	c-5.133,3.046-10.75,5.193-16.604,6.348c-9.904-10.53-26.471-11.04-37.002-1.136c-6.792,6.387-9.671,15.905-7.564,24.986
	C42.133,44.488,22.543,34.557,9.264,18.22c-6.94,11.949-3.396,27.235,8.096,34.909c-4.161-0.124-8.232-1.246-11.869-3.273
	c0,0.107,0,0.219,0,0.331c0.003,12.448,8.779,23.17,20.98,25.636c-3.85,1.05-7.889,1.202-11.808,0.448
	c3.426,10.652,13.244,17.951,24.433,18.16c-9.26,7.277-20.7,11.229-32.478,11.217c-2.081-0.004-4.159-0.131-6.225-0.379
	c11.959,7.676,25.874,11.746,40.084,11.729"/>
</svg>
